<svg id="Layer_2" data-name="Layer 2" xmlns="http://www.w3.org/2000/svg" viewBox="0 0 500 500"><defs><style>.cls-1{fill:#256e97;}.cls-2,.cls-7{fill:#e1deef;}.cls-2{opacity:0.8;}.cls-3{fill:#008394;}.cls-4{fill:#006874;}.cls-5{fill:#43718f;}.cls-6{fill:#08304e;}.cls-8{fill:#164665;}.cls-9{fill:#2a597c;}</style></defs><title>АДМИНИСТРАТИВНЫЕ</title><rect class="cls-1" width="500" height="500" rx="250" ry="250"/><circle class="cls-2" cx="250" cy="250" r="228.78"/><rect class="cls-3" x="170.47" y="127.72" width="163.13" height="218.39"/><rect class="cls-4" x="333.59" y="220.18" width="94.99" height="125.93"/><rect class="cls-4" x="75.48" y="220.18" width="94.99" height="125.93"/><rect class="cls-5" x="223.32" y="278.09" width="28.71" height="68.02"/><path class="cls-6" d="M253.86,347.94H221.49V276.27h32.36Zm-28.71-3.65h25.06V279.92H225.15Z"/><rect class="cls-5" x="252.03" y="278.09" width="28.71" height="68.02"/><path class="cls-6" d="M282.57,347.94H250.21V276.27h32.37Zm-28.71-3.65h25.06V279.92H253.86Z"/><rect class="cls-7" x="91.01" y="246.03" width="24.2" height="32.06"/><rect class="cls-7" x="130.74" y="246.03" width="24.2" height="32.06"/><rect class="cls-7" x="91.01" y="292.61" width="24.2" height="32.06"/><rect class="cls-7" x="130.74" y="292.61" width="24.2" height="32.06"/><rect class="cls-7" x="388.85" y="246.03" width="24.2" height="32.06"/><rect class="cls-7" x="349.12" y="246.03" width="24.2" height="32.06"/><rect class="cls-7" x="388.85" y="292.61" width="24.2" height="32.06"/><rect class="cls-7" x="349.12" y="292.61" width="24.2" height="32.06"/><rect class="cls-7" x="184.12" y="292.61" width="24.2" height="32.06"/><rect class="cls-7" x="184.12" y="246.03" width="24.2" height="32.06"/><rect class="cls-7" x="223.32" y="246.19" width="24.2" height="15.87"/><rect class="cls-7" x="256.54" y="246.19" width="24.2" height="15.87"/><rect class="cls-7" x="184.12" y="199.45" width="24.2" height="32.06"/><rect class="cls-7" x="184.12" y="152.87" width="24.2" height="32.06"/><rect class="cls-7" x="295.74" y="292.61" width="24.2" height="32.06"/><rect class="cls-7" x="295.74" y="246.03" width="24.2" height="32.06"/><rect class="cls-7" x="295.74" y="199.45" width="24.2" height="32.06"/><rect class="cls-7" x="256.54" y="199.45" width="24.2" height="32.06"/><rect class="cls-7" x="256.54" y="152.51" width="24.2" height="32.06"/><rect class="cls-7" x="223.32" y="199.45" width="24.2" height="32.06"/><rect class="cls-7" x="223.32" y="152.51" width="24.2" height="32.06"/><rect class="cls-7" x="295.74" y="152.87" width="24.2" height="32.06"/><polygon class="cls-8" points="170.47 208.97 66.35 208.97 71.83 220.18 170.47 220.18 170.47 208.97"/><polygon class="cls-8" points="275.8 121.2 160.72 121.2 166.2 132.41 275.8 132.41 275.8 121.2"/><polygon class="cls-8" points="228.27 121.2 343.35 121.2 337.87 132.41 228.27 132.41 228.27 121.2"/><polygon class="cls-8" points="333.6 208.97 437.71 208.97 432.24 220.18 333.6 220.18 333.6 208.97"/><rect class="cls-9" x="66.35" y="343.38" width="371.36" height="11.25"/></svg>