<svg id="Layer_2" data-name="Layer 2" xmlns="http://www.w3.org/2000/svg" viewBox="0 0 500 500"><defs><style>.cls-1{fill:#256e97;}.cls-2{fill:#e1deef;opacity:0.8;}.cls-3{fill:#008394;}.cls-4{fill:#006874;}</style></defs><title>банки</title><rect class="cls-1" width="500" height="500" rx="250" ry="250"/><ellipse class="cls-2" cx="250" cy="250" rx="228.77" ry="228.78"/><path class="cls-3" d="M316.06,326.29c.42-6.57.84-12.77,1.21-19q2.23-38.31,4.42-76.61c.09-1.58.19-3.16.14-4.74a5.43,5.43,0,0,0-4.83-5.55c-3.6-.65-5.44-2.55-5.2-5.36s2.5-4.54,6-4.55q19.26-.06,38.52,0c3.36,0,5.53,1.81,5.77,4.48.26,2.91-1.49,4.77-5.09,5.42a5.64,5.64,0,0,0-4.92,6.34c.92,16.35,1.91,32.69,2.86,49q1.26,21.73,2.49,43.46c.13,2.22.28,4.44.44,7,2.09,0,4,0,5.93,0,6.08,0,10.13,3.54,10.13,8.75s-4.07,8.79-10.1,8.79H286.52l-138.46,0c-5.21,0-8.63-2.15-9.87-6.12-1.76-5.63,2.26-11.1,8.43-11.38,2.31-.11,4.62,0,7.19,0,.3-4.5.62-8.74.87-13q1.51-26,3-52.1,1-16.71,2-33.43c.28-4.5-1.22-6.58-5.54-7.43-2.95-.58-4.56-2.45-4.44-5.16.11-2.54,2.09-4.48,5-4.62s6-.09,8.93-.09l28.75,0c.93,0,1.87,0,2.79.07A5.07,5.07,0,0,1,200,215.1c.18,2.68-1.43,4.6-4.37,5.21-4.39.91-5.89,2.68-5.63,7.08,1.2,20.9,2.46,41.79,3.68,62.68.65,11.14,1.31,22.29,1.82,33.44.1,2.14.66,2.85,2.89,2.83q17-.16,34.06,0c2.3,0,2.73-.81,2.85-2.88q2.35-42.07,4.85-84.14c.24-4.09.52-8.17.67-12.26s-1.45-5.95-5.43-6.72c-3.12-.6-4.81-2.55-4.59-5.31a5,5,0,0,1,5.17-4.49q20-.12,39.92,0a5,5,0,0,1,5.18,4.48c.22,2.77-1.47,4.74-4.56,5.35-4.07.8-5.7,2.81-5.46,7q2.08,35.52,4.2,71c.48,8.26,1,16.53,1.29,24.8.09,2.27.62,3.21,3.18,3.18,11.07-.15,22.15-.07,33.22-.07Z"/><path class="cls-4" d="M255.91,198.73q-62.25,0-124.51,0c-5.19,0-8.89-2.13-11.1-6.89-1.21-2.61-2.58-5.15-3.85-7.74-2.28-4.63-1.39-7.45,3.21-9.84q32.78-17,65.58-34,31.8-16.5,63.6-33a14.12,14.12,0,0,1,14.05,0q63.94,33.26,127.94,66.39l1.23.65c4.62,2.46,5.53,5.35,3.19,10.1-1.24,2.5-2.56,5-3.74,7.48-2.21,4.74-5.92,6.88-11.11,6.88q-47.88,0-95.75,0Zm12.38-50.48c.85,0,1.32,0,1.78,0,4-.09,5.16-1.85,3.64-5.57-1.62-4-4.8-6-8.79-7-1.94-.49-3.63-1-4.24-3.42-.27-1.05-1.85-2.55-2.7-2.47a4.31,4.31,0,0,0-3,2.51,4.8,4.8,0,0,1-3.62,3.42,28.38,28.38,0,0,0-3.93,1.4,11.83,11.83,0,0,0-7.21,11.59c0,5.07,2.86,8.28,7.39,10.12,2.06.83,4.18,1.53,6.29,2.23,2.29.76,4.67,1.29,6.88,2.24a4.14,4.14,0,0,1,1.84,6.66c-2.35,3.14-8.91,3-10.58-.51-2.14-4.52-4.3-4.28-9.31-3.91-2.32.17-3.27,1.88-2.74,4.21,1.31,5.78,5.46,8.35,10.84,9.43,2,.41,3.6,1,4.2,3.4a3.56,3.56,0,0,0,2.67,2.18,4,4,0,0,0,2.91-2.26c.57-2.17,2-2.92,3.77-3.63a26,26,0,0,0,6.46-3.1,12.18,12.18,0,0,0-2.61-20.91c-2.8-1.2-5.81-1.92-8.7-3a30.75,30.75,0,0,1-5.61-2.38c-2.33-1.41-2.43-3.76-.54-5.63,2.39-2.36,7.07-2,8.7.93C263.59,147.5,265.61,148.75,268.3,148.25Z"/><path class="cls-4" d="M255.87,349.74H380.67c6.87,0,11.21,5,9.67,11.12-1,4-4.57,6.41-9.63,6.42q-25.27,0-50.54,0H131.38c-6.08,0-10-3.2-10.19-8.33-.21-5.43,3.64-9.18,9.59-9.2,13,0,26.06,0,39.09,0Z"/></svg>