<svg xmlns="http://www.w3.org/2000/svg" viewBox="0 0 500 500"><style>.st0{display:none}.st1{fill:#256e97}.st3{display:inline}.st4{fill:#e1deef}.st5,.st6{display:inline;fill:#008394}.st6{fill:#164665}.st7{fill:#006874}.st8{fill:#164665}.st9{fill:#eff0f2}.st10{fill:#008394}.st11{fill:#43718f}.st13{fill:#b6bdce}.st14,.st15{display:inline;fill:#eef0ef}.st15{fill:#2a597c}.st17{font-family:&apos;Rockwell-ExtraBold&apos;}.st21{fill:#2a597c}.st23{stroke:#08304e;stroke-miterlimit:10}.st23,.st26{display:inline;fill:#08304e}.st28{fill:#00bad3}.st30{display:inline;fill:#43718f}.st34{opacity:.8;fill:#e1deef}.st37,.st39{display:inline;fill:#256e97}.st39{fill:#00bad3}.st41{fill:#08304e}.st42{fill:#19334b}.st43{fill:none}.st44{font-size:87.0762px}</style><g id="Layer_1" class="st0"><path class="st1" d="M250 502a250 250 0 110-500 250 250 0 110 500z"/><circle cx="250" cy="252" opacity=".8" fill="#e1deef" r="228.8"/><g class="st3"><path class="st4" d="M27 250l107-108"/><path transform="rotate(-45 80 196)" class="st1" d="M-14 178h188v36H-14z"/></g><g class="st3"><path class="st4" d="M27 250l107 108"/><path transform="rotate(-45 80 304)" class="st1" d="M63 210h35v188H63z"/></g><g class="st3"><path class="st4" d="M27 250h472"/><path class="st1" d="M27 232h472v36H27z"/></g><path class="st5" d="M91 370h281V90z"/><path class="st6" d="M236 311h76v-77zM137 356l-1 1h-3l-9-9v-4h3l10 10v2zM157 334l-1 2h-3l-10-10v-3h3l10 10 1 1zM177 315l-1 1h-3l-10-9v-4h3l10 10 1 2zM197 294l-1 2h-3l-10-10v-3h4l9 10 1 1zM217 275l-1 1h-3l-10-10v-3h3l10 10 1 2zM237 255l-1 2h-3l-10-10v-3h4l9 9 1 2zM256 235l-1 2h-3l-10-10v-3h3l10 10 1 1zM276 215v2h-4l-9-10v-4l3 1 10 9v2zM297 194l-1 2h-3l-10-10v-3h3l10 10 1 1zM318 174l-1 1h-3l-10-9v-4h3l10 10 1 2zM338 153l-1 2h-3l-10-10v-3h4l9 10 1 1zM358 134l-1 1h-3l-10-10v-3h3l10 10 1 2zM156 354l-1 2h-3l-19-19v-3h4l18 19 1 1zM176 334l-1 1h-3l-19-19v-3h3l19 19 1 2zM195 313v2h-3l-19-19v-3h3l19 19v1zM216 294l-1 1h-3l-19-19v-3h3l19 19 1 2zM236 274v1l-3 1-19-19v-4h3l19 19v2zM257 254l-1 2h-3l-19-19v-3h3l19 19 1 1zM277 234l-1 1h-3l-19-19v-3h3l19 19 1 2zM297 214l-1 2h-3l-19-19v-3h4l18 18 1 2zM316 194l-1 1h-3l-19-19v-3h3l19 19 1 2zM336 173l-1 2h-3l-19-19v-3h3l19 18 1 2zM356 153l-1 2h-3l-19-19v-3h3l19 19 1 1z"/><g><path class="st5" d="M131 75l-54 52 299 303 56-55z"/><path class="st6" d="M345 354l2 1v3l-11 11h-3v-4l11-10 1-1zM369 378l2 1v3l-11 11h-3v-4l11-10 1-1zM322 333l2 1v3l-11 10-3 1v-4l11-10 1-1zM301 312h2v4l-11 10h-3v-3l11-11h1zM279 290h2v4l-11 10h-3v-3l10-11h2zM258 269h2v4l-11 10h-3v-3l10-11h2zM237 246l2 1v3l-11 11h-3v-3l10-11 2-1zM216 226l2 1v3l-11 11h-3v-3l10-11 2-1zM194 204l1 1v3l-10 11h-4v-4l11-10 2-1zM172 182l1 1v3l-10 11h-4v-4l11-10 2-1zM150 160l1 1v3l-10 11h-4v-4l11-10 2-1zM127 138l2 1v3l-11 11h-3v-4l11-10 1-1zM106 117h2v4l-11 11h-3v-4l11-11h1zM344 334h1v4l-20 20h-3v-3l20-21h2zM367 357h1v4l-20 20h-3v-3l20-21h2zM391 382h1v4l-20 20h-3v-3l20-21h2zM322 313h1v4l-20 20h-3v-4l20-20h2zM300 291l1 1v3l-20 21h-4l1-4 20-20 2-1zM278 269l2 1v3l-20 21h-4v-4l21-20 1-1zM257 247l2 1v3l-20 21h-4v-4l20-20 2-1zM236 225l2 1v3l-21 20-3 1v-4l20-20 2-1zM214 204l2 1v3l-21 20h-3v-3l20-20 2-1zM193 182l2 1v3l-21 20h-3v-3l20-20 2-1zM171 162l2 1v3l-21 20h-3v-3l20-20 2-1zM149 141h1v4l-20 20h-3v-3l20-21h2zM128 119h1v4l-20 20h-3v-3l20-21h2z"/></g><g><g class="st3"><path class="st7" d="M148 92h207v135H148z"/><path class="st8" d="M392 326c0 9-6 16-14 16H122c-8 1-14-7-14-16V217c0-9 6-16 13-16h257c8 0 14 7 14 16v109z"/><path class="st9" d="M339 192c0 3-5 6-12 6H176c-6 0-12-3-12-6v-74c0-4 6-6 12-6h151c7 0 12 2 12 6v74z"/><path class="st10" d="M108 181c0-7 6-13 14-13h257c7 0 13 6 13 13v56H108v-56z"/><path class="st11" d="M108 236h284v16H108z"/><circle class="st4" cx="141.3" cy="204.2" r="9.9"/><circle class="st4" cx="167.6" cy="204.2" r="6.6"/><circle class="st4" cx="190.7" cy="204.2" r="6.6"/><path fill="#402d44" d="M162 283h185v60H162z"/><path class="st9" d="M343 388c0 4-6 7-12 7H179c-7 0-12-3-12-7v-91c0-4 5-7 12-7h152c6 0 12 3 12 7v91z"/><path class="st13" d="M187 307h126v9H187zM187 329h56v9h-56zM187 351h126v8H187zM187 372h56v9h-56z"/></g></g><g><path class="st14" d="M136 341l4-4 45 45-4 3-1 1-39 17-22-22 17-40z"/><path class="st6" d="M119 381l22 22-34 14c-2 1-3-1-3-2l15-34z"/><path class="st15" d="M180 377l58-57 6-6 2 5 1 1-66 65h-1l-1-1 1-6v-1z"/><path class="st5" d="M173 370l65-65 1 1 1 2 1 1h-1c2 2 3 3 3 5l-6 6-57 57-7 1-1-1 1-6v-1z"/><path class="st15" d="M166 363l66-66 2 3 4 5-65 65-7 1-1-1 1-7z"/><path class="st5" d="M159 356l65-66 2 2 2 2 2 2 2 1-66 66h-1l-6 1-1-1 1-7z"/><path class="st15" d="M152 348l64-65 1 1 4 4 3 2-65 65-1 1h-6c-1 1-1 0-1-1v-6l1-1z"/><path class="st5" d="M145 341l63-63a103 103 0 018 6l-65 64h1l-1 1h-7l-1-1 1-6v-1h1z"/><path class="st15" d="M208 278l-63 63-1 1h-6l-2-1v-1l66-65 6 3zM239 318l58-57 6-6 3 5v1l-65 65h-1l-2-1 1-6v-1z"/><path class="st5" d="M233 311l64-65 1 1 1 2 1 1 2 5-5 6-58 57-7 1-1-1 1-7h1c-1 0 0 0 0 0z"/><path class="st15" d="M225 304l66-66 2 3 4 5-64 65h-1l-7 1-1-1 1-7z"/><path class="st5" d="M218 296l65-65 2 1 2 2 2 3 2 1-66 66-7 1-1-2 1-6v-1z"/><path class="st15" d="M211 289l64-65 1 1 5 4 2 2-65 65-1 1h-6c-1 1-1 0-1-1l1-6v-1z"/><path class="st5" d="M204 282l63-63a103 103 0 018 5l-64 65-1 1h-6c-1 0-2 0-1-1v-6l1-1z"/><path class="st15" d="M267 219l-63 63h-1l-6 1-2-1 1-1 65-65 6 3zM299 258l57-57 6-6v1l3 5-65 65-1 1-1-1 1-7v-1z"/><path class="st5" d="M292 251l65-64v1l1 1 1 2 3 4-6 6-57 57v1h-7c-1 1-1 0-1-1l1-6v-1z"/><path class="st15" d="M285 244l65-65 3 2 3 5 1 1-65 64h-1l-6 1-1-1 1-6v-1z"/><path class="st5" d="M278 237l65-66 2 2 2 2 2 2 1 2-65 65h-1l-6 1-2-1 1-7h1z"/><path class="st15" d="M270 230l65-65h1l4 4 3 2-65 66h-1l-6 1-2-1 1-7z"/><path class="st5" d="M263 223l63-63a103 103 0 019 5l-65 65-7 1-1-1 1-7z"/><path class="st15" d="M326 160l-63 63-7 1-1-2 65-66 6 4zM357 200l58-57 6-6 2 5 1 1-66 65h-1l-1-1 1-6v-1z"/><path class="st5" d="M350 193l65-65 1 1 1 2 1 1 2 5-6 6-57 57-7 1-1-1 1-6v-1z"/><path class="st15" d="M343 186l66-66 2 3 3 5h1l-65 65-7 1-1-1 1-7z"/><path class="st5" d="M336 179l65-66 2 2 2 2 2 2 2 1-66 66h-1l-6 1-1-1 1-7z"/><path class="st15" d="M329 171l64-65 1 1 5 4 2 2-65 65-1 1h-6c-1 1-1 0-1-1l1-6v-1z"/><path class="st5" d="M322 164l63-63a103 103 0 018 6l-65 64h1l-1 1h-6c-1 1-2 0-2-1l1-6v-1h1z"/><path class="st15" d="M385 101l-63 63-1 1h-7l-1-1v-1l66-65 6 3z"/></g><path fill="none" d="M47 178h453v257H47z"/><g><text transform="translate(130 327)" class="st5 st17" font-size="180">M</text><text transform="matrix(.583 0 0 .583 329 254)" class="st15 st17" font-size="220">2</text></g><path fill="none" stroke="#008394" stroke-width="20" stroke-miterlimit="10" d="M388 182L123 330"/><circle class="st21" cx="113" cy="334.3" r="24.7"/><circle class="st21" cx="394" cy="175.8" r="24.7"/><g><path class="st15" d="M372 373V162l-45-45H145c-16 0-29 13-29 28v200c0 15 13 28 29 28h227"/><path fill="#008394" stroke="#008394" stroke-width="3" stroke-miterlimit="10" d="M320 339H147V226h173"/><path class="st23" d="M263 289l53 62c2 2 6 2 8 0l53-62c2-4 0-9-4-9h-15c-3 0-5-2-5-5v-89c0-3-2-5-5-5h-57c-2 0-5 2-5 5v89c0 3-2 5-5 5h-14c-5 0-7 5-4 9z"/><path fill="none" stroke="#164665" stroke-width="3" stroke-miterlimit="10" d="M275 198H172v-81"/><path fill="#008394" stroke="#008394" stroke-miterlimit="10" d="M188 131h31v49h-31z"/><path class="st26" d="M382 387H257c-3 0-6-3-6-7v-11c0-4 3-7 6-7h125c4 0 7 3 7 7v11c0 4-3 7-7 7z"/></g><g><path class="st23" d="M328 200l-65-77c-3-3-7-3-10 0l-65 77c-3 4-1 10 5 10h18c3 0 6 3 6 6v111c0 3 3 6 6 6h70c3 0 6-3 6-6V216c0-3 3-6 7-6h17c6 0 9-6 5-10z"/><path class="st26" d="M180 349h157c3 0 6 3 6 7v16c0 4-3 7-6 7H180c-4 0-7-3-7-6v-17c0-4 3-7 7-7z"/></g><g><path class="st5" d="M363 195c0 62-113 227-113 227S137 257 137 195a113 113 0 01226 0z"/><circle cx="251.5" cy="193.3" r="74.2" fill="#e1deef"/></g><g><g class="st3"><path class="st10" d="M223 239l-43 5c-4 1-9 3-10 6l-57 122c-5 9-1 15 7 12l86-19 13-3 2-19 8-101v-4l-6 1z"/><path class="st28" d="M223 243l-39 4c-4 1-8 3-9 6l-44 104c-3 7 0 12 7 10l71-15 11-3 1-15 8-89v-3l-6 1z"/><path class="st10" d="M340 382l70-19c6-2 7-10 1-17l-72-105c-1-2-5-3-8-3l-39 5-7 1 2 7 36 118 5 16 12-3z"/><path class="st28" d="M334 368l60-16c5-1 5-7 1-13l-59-94c-2-2-5-3-8-3l-35 5-6 1 1 6 32 104 4 13 10-3z"/><path class="st7" d="M328 385l-109-23 10-124 56 6z"/><path class="st10" d="M324 371l-104-22 9-107 57 6z"/><path class="st8" d="M345 297c0 8-14 29-14 29s-15-21-15-29 7-14 15-14 14 6 14 14z"/><circle class="st4" cx="330.8" cy="297.1" r="9.4"/><path class="st8" d="M281 234c0 8-15 29-15 29s-14-21-14-29a14 14 0 0129 0z"/><circle class="st4" cx="266.7" cy="234.2" r="9.4"/><g><path class="st8" d="M175 283c0 8-14 29-14 29s-15-21-15-29a14 14 0 0129 0z"/><circle class="st4" cx="161.1" cy="282.4" r="9.4"/></g></g><g class="st3"><path class="st10" d="M261 190c3 3 6 3 8-1l1-1 4-1 3 8v6l4 1c4 0 6 2 5 5l-1 2c-4 2-6 5-4 10v2c2 5 6 7 11 5l34-11 7-2c4-2 6-5 5-10l-2-3c-1-4-4-5-8-5-3 0-5-3-4-6l2-1 3-3-2-4-1-2-11-33v-2l-1-4-3-1c-3 0-4 0-5-2 0-2-1-4 2-5 3-2 5-5 4-9l-2-3c-1-5-5-7-9-5l-42 13c-4 2-6 5-5 10l2 4c1 3 4 4 8 4 2 0 3 0 4 3 0 2 0 3-2 4l-3 3c-1 2 0 3 2 4l1 2 2 8-4 2-5-1-2 3-2 2-103 32h-3a11 11 0 00-8 20c5 3 10 2 14-1l3-2 102-35h1z"/><path class="st7" d="M249 196l-74 25c-4 2-9-1-10-5l-2-5c-1-4 1-9 5-10l74-25c4-2 9 0 10 5l2 5c1 4-1 9-5 10zM325 189l-42 13c-3 1-6 0-8-4l-12-38c-1-4 1-7 4-8l41-14c4-1 7 1 8 4l13 39c1 3-1 7-4 8z"/></g></g><g><g class="st3"><path class="st10" d="M210 243l-43 5c-4 1-8 3-10 6l-57 122c-4 9-1 15 8 12l85-19 13-3 2-19 8-101 1-4-7 1z"/><path class="st28" d="M210 247l-39 4c-4 1-7 3-9 6l-44 104c-3 7 0 12 7 10l71-15 11-3 2-15 7-89v-3l-6 1z"/><path class="st10" d="M327 386l70-19c6-2 7-10 1-17l-72-104c-1-3-5-4-8-4l-39 5-7 2 2 6 36 118 5 16 12-3z"/><path class="st28" d="M321 372l60-16c5-1 5-7 1-13l-59-94c-2-2-5-3-8-3l-35 5-6 1 1 6 32 104 4 13 10-3z"/><path class="st7" d="M315 389l-109-23 11-124 56 7z"/><path class="st10" d="M311 375l-104-22 9-107 58 6z"/><path class="st8" d="M332 301c0 8-14 29-14 29s-15-21-15-29a14 14 0 0129 0z"/><circle class="st4" cx="317.9" cy="301.1" r="9.4"/><g><path class="st8" d="M162 287c0 8-14 29-14 29s-14-21-14-29 6-15 14-15 14 7 14 15z"/><circle class="st4" cx="148.2" cy="286.5" r="9.4"/></g></g></g><g><path class="st15" d="M243 155s-25 103-26 117v18s0 9 2 14h8v-16s0-17 4-23l21-93 4-17h-13zM270 155s25 103 26 117v18s0 9-2 14h-7v-16s0-17-4-23l-22-93-4-17h13z"/><path class="st26" d="M223 303h3v13h-3zM287 303h3v13h-3zM212 210h90v3h-90z"/><path class="st5" d="M257 117a23 23 0 110 47 23 23 0 010-47m0-7c-8 0-16 3-22 9a30 30 0 000 43 30 30 0 0044 0 30 30 0 000-43c-6-6-14-9-22-9z"/><path class="st30" d="M258 114h-2c-1 0-3-1-3-3v-10l3-3h2l2 3v11l-2 2z"/><path class="st6" d="M257 103c-3 0-5-2-5-5V76c0-3 2-6 5-6s5 3 5 6v22c0 3-2 5-5 5z"/><circle class="st30" cx="256.9" cy="162.9" r="10.8"/></g><g><path class="st6" d="M341 358c-5-3-6-9-4-13l11-17c2-4 7-5 12-2l31 23c2-16-5-35-19-49l-10-9a30 30 0 00-14-6l-5-1-15-1c-7-1-15-5-15-5l-40-42-39-42s-9-10-10-20v-19c0-5-2-10-5-15l-7-8c-19-20-47-25-65-14l31 22c4 4 6 9 3 13l-10 18c-3 4-8 4-13 1l-31-22c-1 16 5 34 19 48 3 4 6 7 10 9a32 32 0 0015 7h4l15 2c7 1 16 5 16 5l39 42 40 41s8 10 9 21l1 19c0 5 1 10 4 15l7 8c20 19 47 25 66 14l-31-23z"/><path class="st5" d="M341 115l-3 2-20 19c-6 6-8 13-6 19l-91 106 12 11 91-107c7 1 14-2 18-8l15-24 2-3-18-15z"/><path class="st30" d="M223 259l-9-7c-1-1-5-1-7 1l-1 1v2l-1 1v1l-1-1h-4l-76 90c-9 10-10 25-1 32l10 9c8 7 23 4 32-7l76-89v-4l-2-1h1v-1h1v-1h1l1-2c2-2 2-4 0-6l-4-4-3-3-13-11z"/><path class="st6" d="M137 363c-3 3-6 3-8 1-3-1-3-5 0-8l69-81c2-3 6-3 8-2 2 2 2 6 0 9l-69 81zM154 378c-2 3-5 3-7 1-3-1-2-5 0-8l69-81c2-3 6-3 8-1 2 1 2 5 0 8l-70 81z"/></g><g><circle class="st5" cx="250" cy="250" r="171.7"/><path d="M250 394a144 144 0 110-288 144 144 0 010 288z" fill="#164665" stroke="#164665" stroke-width="3.2" stroke-linecap="round" stroke-linejoin="round" stroke-miterlimit="10"/><path fill="#e1deef" stroke="#e1deef" stroke-width="3.2" stroke-linecap="round" stroke-linejoin="round" stroke-miterlimit="10" d="M347 195l-42-42-55 56-55-56-42 42 56 55-56 55 42 42 55-56 55 56 42-42-56-55z"/></g><path d="M351 385H150c-7 0-12-6-12-12V127c0-6 5-12 12-12h201c6 0 12 6 12 12v246c0 6-6 12-12 12z" fill="#a3abc4" stroke="#164665" stroke-width="10" stroke-miterlimit="10"/><g><path class="st14" d="M246 239l1-3 39 23-2 3-24 19-19-11 5-31z"/><path class="st6" d="M241 270l19 11-21 16c-1 1-2 0-2-1l4-26z"/><path class="st15" d="M282 256l29-49 3-5 3 3-33 56v1l-1-1-1-4v-1z"/><path class="st5" d="M276 253l33-56 1 1 1 1 3 3-3 5-29 49-5 2h-1v-5z"/><path class="st15" d="M270 249l33-56 2 1 3 3h1l-33 56-5 2-1-1v-4-1z"/><path class="st5" d="M264 245l33-56 1 1 2 1 2 1h1l-33 57-5 2-1-1v-4-1z"/><path class="st15" d="M257 242l33-56 4 2 3 1-33 56-1 1-4 1h-1l-1-5z"/><path class="st5" d="M251 238l32-54 5 1 2 1-33 55v1l-4 2-1-1-1-5z"/><path class="st15" d="M283 184l-32 54v1l-4 1h-1v-1l33-56 4 1zM312 205l29-49 3-5 3 3-33 56v1h-1l-1-1v-4-1z"/><path class="st5" d="M306 202l33-56v1h1l1 1 3 3-3 5-29 49-1 1-4 1h-1l-1-5h1z"/><path class="st15" d="M300 198l33-56 2 1 3 3h1l-33 56h-1l-4 2-1-1v-4-1z"/><path class="st5" d="M293 194l33-56 2 1 2 1 1 1h2l-33 57h-1l-4 2-1-1-1-4v-1z"/><path class="st15" d="M287 191l33-56 4 2 2 1-33 56v1l-4 1h-1l-1-5z"/><path class="st5" d="M281 187l32-54 5 1 2 1-33 56-4 2-1-1-1-5z"/><path class="st15" d="M313 133l-32 54v1l-5 1h-1v-1l33-56 5 1zM342 154l29-49 3-5 3 3-33 56-1 1-1-1v-5z"/><path class="st5" d="M336 150l33-55 1 1 1 1 3 2-3 6-29 49h-1l-4 2-1-1-1-4 1-1z"/><path class="st15" d="M330 147l33-57 2 2 3 2 1 1-33 55-1 1-4 1h-1v-5z"/><path class="st5" d="M323 143l33-56h2l2 1 1 1 2 1-33 57h-1l-4 2-1-1-1-5z"/><path class="st15" d="M317 139l33-55 4 2 2 1-33 56-4 2-1-1-1-4v-1z"/><path class="st5" d="M311 136l32-54 5 1 2 1-33 55v1l-4 1h-1l-1-5z"/><path class="st15" d="M343 82l-32 54-5 2-1-1 33-57 5 2z"/></g></g><g id="Layer_2"><g class="st0"><path class="st37" d="M250 500a250 250 0 110-500 250 250 0 110 500z"/><g class="st3"><circle class="st34" cx="250" cy="250" r="228.8"/><path d="M155 376c4 4 10 6 16 6h178-178c-6 0-12-2-16-6z" fill="#7c1617"/></g><path class="st39" d="M251 123l-3 2-33 21c-24 13-48 23-74 28-2 1-3 1-3 4a271 271 0 0012 90h100l1-145zM249 398a258 258 0 00101-130H250l-1 130z"/><path class="st5" d="M362 178c0-3-1-4-3-5a287 287 0 01-108-49l-1 144h100c9-29 13-59 12-90zM150 268a248 248 0 0099 130l1-130H150z"/></g><g class="st0"><path class="st37" d="M250 500a250 250 0 110-500 250 250 0 110 500z"/><g class="st3"><circle class="st34" cx="250" cy="250" r="228.8"/></g><g class="st3"><path class="st4" d="M405 256a155 155 0 11-311 0 155 155 0 01311 0z"/><path transform="rotate(-30 287 260)" class="st42" d="M282 197h10v126h-10z"/><path class="st7" d="M249 101a155 155 0 110 311 155 155 0 010-311m0-13a176 176 0 00-94 28 175 175 0 00-61 75 168 168 0 00189 231 168 168 0 00-34-334z"/><path class="st42" d="M252 148c-2 0-4-2-4-4v-24c0-2 2-4 4-4s4 2 4 4v24c0 2-2 4-4 4zM330 182c-2-2-2-4 0-6l16-16c2-2 4-2 6 0v5l-17 17h-5zM360 260c0-2 2-4 4-4h24c2 0 4 2 4 4s-2 4-4 4h-24c-2 0-4-2-4-4zM328 335h5l17 17c1 1 2 4 0 5-2 2-4 2-6 0l-16-16c-2-2-2-4 0-6zM252 368c2 0 4 2 4 4v24c0 2-2 4-4 4s-4-2-4-4v-24c0-2 2-4 4-4zM174 338c2 2 2 4 0 6l-17 17h-5c-2-2-2-5 0-6l17-17h5zM140 260c0 3-2 4-4 4h-23c-3 0-4-1-4-4 0-2 1-4 4-4h23c2 0 4 2 4 4zM172 181c-1 1-4 2-5 0l-17-17c-2-1-2-4 0-5 1-2 4-2 6 0l16 16c2 2 2 4 0 6z"/><path class="st43" d="M126 230h137v71H126z"/><text transform="translate(135 289)" class="st21 st17 st44">24</text><path class="st43" d="M281 225h111v71H281z"/><text transform="translate(306 284)" class="st21 st17 st44">7</text></g></g><g class="st0"><path class="st37" d="M250 500a250 250 0 110-500 250 250 0 110 500z"/><g class="st3"><circle class="st34" cx="250" cy="250" r="228.8"/></g><g class="st3"><path class="st10" d="M171 128h163v218H171z"/><path class="st7" d="M334 220h95v126h-95zM76 220h95v126H76z"/><path class="st11" d="M223 278h29v68h-29z"/><path class="st41" d="M254 348h-32v-72h32v72zm-29-4h25v-64h-25v64z"/><path class="st11" d="M252 278h29v68h-29z"/><path class="st41" d="M283 348h-33v-72h33v72zm-29-4h25v-64h-25v64z"/><path class="st4" d="M91 246h24v32H91zM131 246h24v32h-24zM91 293h24v32H91zM131 293h24v32h-24zM389 246h24v32h-24zM349 246h24v32h-24zM389 293h24v32h-24zM349 293h24v32h-24zM184 293h24v32h-24zM184 246h24v32h-24zM223 246h25v16h-25zM257 246h24v16h-24zM184 200h24v32h-24zM184 153h24v32h-24zM296 293h24v32h-24zM296 246h24v32h-24zM296 200h24v32h-24zM257 200h24v32h-24zM257 153h24v32h-24zM223 200h25v32h-25zM223 153h25v32h-25zM296 153h24v32h-24z"/><path class="st8" d="M171 209H66l6 11h99zM276 121H161l5 11h110z"/><path class="st8" d="M228 121h115l-5 11H228z"/><g><path class="st8" d="M334 209h104l-6 11h-98z"/></g><g><path class="st21" d="M66 343h372v12H66z"/></g></g></g><path class="st1" d="M250 500a250 250 0 110-500 250 250 0 110 500z"/><circle class="st34" cx="250" cy="250" r="228.8"/><path class="st7" d="M353 205c-31-11-77-46-77-46s-31 85-35 115c-5 29 9 87 46 102 38 14 86-22 102-47s48-109 48-109-52-3-84-15zm-40 79h1c2 5 8 7 12 5h1v1a11 11 0 01-14-5v-1zm-28-77h6a72 72 0 0113 1 160 160 0 0111 2h-6l-5 1-7-1-6-1a160 160 0 01-11-2h5zm-11 24c2-5 10-5 20-2 9 3 15 10 13 14-2 5-10 6-20 2-9-3-15-9-13-14zm68 111h-5l-3-3a43 43 0 00-58-22c-3 2-7 0-8-3-2-3 0-7 3-8 28-13 61-1 74 27 2 4 0 7-3 9zm34-64c-9-3-15-10-14-14 2-4 11-5 20-2s15 10 13 14c-1 5-10 6-19 2zm25-26a84 84 0 01-15-10l-4-4-4-4a57 57 0 0010 6 83 83 0 0110 7l4 4 4 4-5-3z"/><path class="st10" d="M160 170c-31 14-88 22-88 22s38 82 56 106c17 24 67 56 104 40 37-17 46-76 40-105s-42-112-42-112-39 36-70 49zm26 84h1c5 1 10-1 12-6h1l1 1a11 11 0 01-14 6l-1-1zm-73-35l4-4 5-4 5-4 4-4 5-3-4 5-4 4-5 4-5 4-4 3-5 3 4-4zm8 25c-2-4 4-11 13-15s18-4 20 1c2 4-4 11-13 15s-18 4-20-1zm120 17c-5 14-16 25-30 31-13 6-28 7-42 1a7 7 0 014-12c23 8 48-3 56-25 1-3 5-5 9-4 3 2 4 5 3 9zm-14-54c-9 4-18 3-20-1-2-5 4-11 13-15s18-4 20 0c2 5-4 12-13 16zm0-37a124 124 0 01-24 3h-5l5-2a124 124 0 0124-3h5l-5 2z"/></g></svg>