<svg id="Layer_1" data-name="Layer 1" xmlns="http://www.w3.org/2000/svg" viewBox="0 0 500 500"><defs><style>.cls-1{fill:#256e97;}.cls-2{fill:#e1deef;opacity:0.8;isolation:isolate;}.cls-3{fill:#008394;}.cls-4{fill:#00bad3;}.cls-5{fill:#f1f2f2;}</style></defs><title>SERVICES</title><path class="cls-1" d="M252.38-.81h0c138.29,0,250.4,112.11,250.4,250.4h0c0,138.29-112.11,250.4-250.4,250.4h0C114.09,500,2,387.89,2,249.6H2C2,111.3,114.09-.81,252.38-.81Z"/><ellipse class="cls-2" cx="252.38" cy="249.6" rx="229.14" ry="229.15"/><circle class="cls-3" cx="244.25" cy="138.13" r="51.48"/><path class="cls-3" d="M174.41,259.42l.1,104a22,22,0,0,1-21.93,22h0a22,22,0,0,1-22-21.93l-.1-103.66a22.17,22.17,0,0,1,21.06-22.28,22,22,0,0,1,22.84,21.92Z"/><path class="cls-3" d="M167.65,273.09l25.39,0-.07-76s-52.23-1.89-62.46,56.72l0,19.31Z"/><path class="cls-3" d="M358.56,259.58l.1,103.66a22,22,0,0,1-21.94,22h0a22,22,0,0,1-22-21.94l-.1-104a22,22,0,0,1,22.81-22A22.17,22.17,0,0,1,358.56,259.58Z"/><path class="cls-3" d="M321.44,272.95l-25.58,0-.07-76s52.23-2,62.57,56.6l0,19.31Z"/><path class="cls-3" d="M306.75,385.8l-125.08.12-.16-177.55a11.51,11.51,0,0,1,11.55-11.23L295.53,197a11.06,11.06,0,0,1,11.06,11.21Z"/><path class="cls-4" d="M284,245.48h-7.8a36.25,36.25,0,0,0-5.11-12.16l0,0,5.51-5.53a3.14,3.14,0,0,0,0-4.44l-9.6-9.58a3.14,3.14,0,0,0-4.44,0L257,219.25a44.73,44.73,0,0,0-12.25-5v-7.84a3.2,3.2,0,0,0-3-3.32H228.19a3.62,3.62,0,0,0-3.49,3.32v7.8a39.43,39.43,0,0,0-12,5.11l.06,0-5.48-5.51a3.11,3.11,0,0,0-4.42,0l-9.57,9.6a3.14,3.14,0,0,0,0,4.44l5.52,5.5a44.27,44.27,0,0,0-5,12.18h-7.84a3.28,3.28,0,0,0-3.27,3.16V262.3a3.07,3.07,0,0,0,3.28,2.9h7.8A36.77,36.77,0,0,0,199,277.44l0,.08-5.51,5.55a3.16,3.16,0,0,0,0,4.45l9.6,9.59a3.14,3.14,0,0,0,4.44,0l5.3-5.52a38.19,38.19,0,0,0,12,5v7.84c0,1.73,1.83,3.13,3.57,3.13h13.57a3,3,0,0,0,2.94-3.14v-7.8a46.48,46.48,0,0,0,12.23-5.11l.07,0,5.55,5.51a3.15,3.15,0,0,0,4.45,0l9.59-9.6a3.14,3.14,0,0,0,0-4.44l-5.52-5.59a44.84,44.84,0,0,0,5-12.27H284a3,3,0,0,0,3.17-3V248.56A3.13,3.13,0,0,0,284,245.48ZM227.2,273.39l-.56-.26q-.85-.41-1.66-.9l-.79-.51-.77-.54-.37-.29a19.64,19.64,0,0,1-3.75-3.89q-.32-.44-.62-.9a19.54,19.54,0,0,1,3.27-25q.52-.47,1.07-.91l.37-.29.77-.55a19.52,19.52,0,0,1,2.45-1.41l.87-.39a19.58,19.58,0,0,1,16.5.59l.83.45q.61.35,1.2.75l.77.54.37.29.72.6q.53.46,1,1,.33.33.65.68A19.62,19.62,0,0,1,251,244.2q.27.38.53.78t.49.8q.35.61.66,1.25A19.61,19.61,0,0,1,254,260.38q-.12.47-.26.93-.21.69-.48,1.35-.17.44-.37.88l-.27.57q-.28.57-.59,1.11t-.49.81l-.42.62-.39.54-.29.37q-.29.37-.6.72l-.31.35q-.31.35-.65.68l-.34.33q-.68.65-1.42,1.23l-.37.29-.77.55-.79.51-.41.24-.83.45a19.58,19.58,0,0,1-16.18.74Z"/><path class="cls-5" d="M278.41,240.78H276A25.32,25.32,0,0,0,274.4,237l1.74-1.78a8.82,8.82,0,0,0,0-12.44l-8.5-8.49a8.77,8.77,0,0,0-12.41,0h0l-1.67,1.7c-1.18-.55-2.47-1-3.59-1.47v-2.47a8.82,8.82,0,0,0-8.91-8.75H229a8.62,8.62,0,0,0-6.37,2.77,8.88,8.88,0,0,0-2.33,6v2.44c-1.12.47-2.51,1-3.74,1.58l-1.75-1.76a8.77,8.77,0,0,0-12.4,0l-8.48,8.49a8.78,8.78,0,0,0,0,12.41l1.74,1.82a25.23,25.23,0,0,0-1.49,3.75h-2.46a8.46,8.46,0,0,0-8.5,8.65v12a8.36,8.36,0,0,0,8.52,8.59h2.45a25.35,25.35,0,0,0,1.56,3.77L194,275.65a8.81,8.81,0,0,0,0,12.43l8.5,8.49a8.77,8.77,0,0,0,12.4,0l1.74-1.77c1.21.56,2.57,1.07,3.7,1.52v2.46a8.81,8.81,0,0,0,8.78,8.77h12a8.82,8.82,0,0,0,8.83-8.79V296.3c1.12-.45,2.44-1,3.63-1.54l1.71,1.71a8.77,8.77,0,0,0,12.41,0l8.48-8.49a8.78,8.78,0,0,0,0-12.41l-1.74-1.8A25.27,25.27,0,0,0,276,270h2.46a8.85,8.85,0,0,0,9-8.67v-12A8.8,8.8,0,0,0,278.41,240.78Zm3,20.57a2.91,2.91,0,0,1-3,2.67H271.5a37.26,37.26,0,0,1-4.4,10.85l4.89,4.9a2.8,2.8,0,0,1,0,3.94l-8.48,8.5a2.77,2.77,0,0,1-3.92,0l-4.88-4.87v0A37.87,37.87,0,0,1,244,291.86v6.9a2.84,2.84,0,0,1-2.84,2.78h-12a2.77,2.77,0,0,1-2.77-2.78v-6.93a37,37,0,0,1-10.79-4.4l-4.9,4.88a2.76,2.76,0,0,1-3.91,0l-8.49-8.48a2.78,2.78,0,0,1,0-3.93l4.88-4.89,0-.1a34.49,34.49,0,0,1-4.52-10.83h-6.9a2.41,2.41,0,0,1-2.52-2.6v-12a2.45,2.45,0,0,1,2.51-2.64h6.93a37.33,37.33,0,0,1,4.4-10.86l-4.88-4.9a2.8,2.8,0,0,1,0-3.95l8.49-8.51a2.79,2.79,0,0,1,3.94,0l4.9,4.87,0,0A38.3,38.3,0,0,1,226.31,219v-6.9a2.7,2.7,0,0,1,2.7-2.76h12a2.87,2.87,0,0,1,2.91,2.76V219a36.57,36.57,0,0,1,10.72,4.4l4.81-4.88a2.78,2.78,0,0,1,3.93,0l8.5,8.48a2.78,2.78,0,0,1,0,3.93L267,235.83l0,.12a34.55,34.55,0,0,1,4.52,10.84h6.9a2.84,2.84,0,0,1,3,2.57Z"/><path class="cls-4" d="M301.52,322.42H297.1a20.54,20.54,0,0,0-2.89-6.89v0l3.12-3.13a1.78,1.78,0,0,0,0-2.52l-5.44-5.43a1.78,1.78,0,0,0-2.52,0l-3.16,3.13a25.34,25.34,0,0,0-6.94-2.82v-4.44a1.81,1.81,0,0,0-1.71-1.88h-7.69a2,2,0,0,0-2,1.88v4.42a22.34,22.34,0,0,0-6.78,2.89h0l-3.1-3.12a1.76,1.76,0,0,0-2.5,0l-5.42,5.44a1.78,1.78,0,0,0,0,2.52l3.13,3.12a25.09,25.09,0,0,0-2.81,6.9H246a1.86,1.86,0,0,0-1.85,1.79V332A1.74,1.74,0,0,0,246,333.6h4.42a20.83,20.83,0,0,0,2.89,6.94v0l-3.12,3.15a1.79,1.79,0,0,0,0,2.52l5.44,5.43a1.78,1.78,0,0,0,2.52,0l3-3.13a21.64,21.64,0,0,0,6.79,2.82v4.44a2,2,0,0,0,2,1.77h7.69a1.69,1.69,0,0,0,1.67-1.78v-4.42a26.34,26.34,0,0,0,6.93-2.89h0l3.14,3.12a1.79,1.79,0,0,0,2.52,0l5.43-5.44a1.78,1.78,0,0,0,0-2.52l-3.13-3.17a25.41,25.41,0,0,0,2.82-7h4.44a1.72,1.72,0,0,0,1.8-1.69v-7.69A1.77,1.77,0,0,0,301.52,322.42Zm-32.2,15.82-.32-.15q-.48-.23-.94-.51l-.45-.29-.43-.31-.21-.16a11.13,11.13,0,0,1-2.13-2.2q-.18-.25-.35-.51a11.07,11.07,0,0,1,1.85-14.19q.29-.27.61-.52l.21-.16.43-.31a11.06,11.06,0,0,1,1.39-.8l.49-.22a11.1,11.1,0,0,1,9.35.33l.47.26q.35.2.68.42l.43.31.21.16.41.34q.3.26.58.54l.37.38a11.12,11.12,0,0,1,.83,1l.3.44.28.46q.2.35.38.71a11.11,11.11,0,0,1,.75,7.56q-.07.27-.15.53t-.27.77q-.1.25-.21.5l-.15.32q-.16.32-.33.63l-.28.46-.24.35-.22.3-.16.21-.34.41-.18.2-.37.38-.19.19q-.38.37-.8.7l-.21.16-.43.31-.45.29-.23.14-.47.26a11.09,11.09,0,0,1-9.17.42Z"/><path class="cls-5" d="M298.34,319.77h-1.39a14.35,14.35,0,0,0-.88-2.14l1-1a5,5,0,0,0,0-7.05l-4.81-4.81a5,5,0,0,0-7,0h0l-.95,1c-.67-.31-1.4-.59-2-.84v-1.4a5,5,0,0,0-5.05-5h-6.8a4.89,4.89,0,0,0-3.61,1.57,5,5,0,0,0-1.32,3.39v1.39c-.64.26-1.42.56-2.12.89l-1-1a5,5,0,0,0-7,0l-4.81,4.81a5,5,0,0,0,0,7l1,1a14.3,14.3,0,0,0-.85,2.12h-1.4a4.8,4.8,0,0,0-4.82,4.9v6.8a4.74,4.74,0,0,0,4.83,4.87h1.39a14.36,14.36,0,0,0,.88,2.14l-1,1a5,5,0,0,0,0,7l4.81,4.81a5,5,0,0,0,7,0l1-1c.69.32,1.46.6,2.1.86v1.4a5,5,0,0,0,5,5h6.8a5,5,0,0,0,5-5v-1.39c.64-.26,1.38-.55,2.06-.87l1,1a5,5,0,0,0,7,0l4.8-4.81a5,5,0,0,0,0-7l-1-1a14.32,14.32,0,0,0,.85-2.12h1.4a5,5,0,0,0,5.11-4.91v-6.8A5,5,0,0,0,298.34,319.77Zm1.73,11.66a1.65,1.65,0,0,1-1.71,1.51h-3.93a21.11,21.11,0,0,1-2.49,6.15l2.77,2.78a1.58,1.58,0,0,1,0,2.23l-4.8,4.82a1.57,1.57,0,0,1-2.22,0l-2.76-2.76h0a21.46,21.46,0,0,1-6.07,2.56v3.91a1.61,1.61,0,0,1-1.61,1.58h-6.8a1.57,1.57,0,0,1-1.57-1.57V348.7a20.94,20.94,0,0,1-6.12-2.49L260,349a1.56,1.56,0,0,1-2.22,0l-4.81-4.81a1.58,1.58,0,0,1,0-2.23l2.76-2.77v-.06a19.54,19.54,0,0,1-2.56-6.14h-3.91a1.37,1.37,0,0,1-1.43-1.47v-6.8a1.39,1.39,0,0,1,1.42-1.5h3.93a21.15,21.15,0,0,1,2.49-6.15l-2.77-2.78a1.59,1.59,0,0,1,0-2.24l4.81-4.82a1.58,1.58,0,0,1,2.23,0L262.7,310h0a21.7,21.7,0,0,1,6.11-2.56v-3.91a1.53,1.53,0,0,1,1.53-1.56h6.8a1.63,1.63,0,0,1,1.65,1.56v3.93a20.72,20.72,0,0,1,6.08,2.49l2.73-2.77a1.57,1.57,0,0,1,2.23,0l4.81,4.81a1.58,1.58,0,0,1,0,2.23L291.88,317V317a19.58,19.58,0,0,1,2.56,6.14h3.91a1.61,1.61,0,0,1,1.72,1.46Z"/></svg>