<svg id="Layer_2" data-name="Layer 2" xmlns="http://www.w3.org/2000/svg" viewBox="0 0 500 500"><defs><style>.cls-1{fill:#256e97;}.cls-2,.cls-6{fill:#e1deef;}.cls-2{opacity:0.8;}.cls-3{fill:#fff;}.cls-4{fill:#008394;}.cls-5{fill:#006874;}.cls-7{fill:#00bad3;}</style></defs><title>МАРШРУТЫ ГОРОДСКОГО</title><rect class="cls-1" width="500" height="500" rx="250" ry="250"/><circle class="cls-2" cx="250" cy="250" r="228.78"/><path class="cls-3" d="M418,264.16c0,5.78-4.1,10.46-9.15,10.46h-1.66c-5.05,0-9.15-4.68-9.15-10.46h0c0-5.78,4.1-10.46,9.15-10.46h1.66c5.05,0,9.15,4.68,9.15,10.46Z"/><path class="cls-4" d="M410.26,294.19c0,1.65-3.53,1-7.83.93L99.87,292.59c-4.3,0-7.83.58-7.82-1.07l.34-41c0-1.65,3.53-1,7.83-.93l305.16,2.56c4.3,0,5.2,1.39,5.19,3Z"/><path class="cls-4" d="M405.32,248.37c3.51,2.77,2.86,5-1.46,5l-303.6-2.54c-4.32,0-7.87,1.82-7.83-3l.63-75.31c0-4.78,3.56-2.87,7.88-2.83l269.31,1.67a27.35,27.35,0,0,1,14.24,5.1Z"/><path class="cls-5" d="M92.42,324.43a3,3,0,0,0,3.07,3H407.91a3,3,0,0,0,3.07-3V293.77c0-1.64-1.38-1-3.07-1H95.49a3,3,0,0,0-3.07,3Z"/><path class="cls-6" d="M101.8,215a13.08,13.08,0,0,0,.17,3H119.7a13.08,13.08,0,0,0,.17-3V184.39c0-1.64-.08-1-.17-1H102a13.08,13.08,0,0,0-.17,3Z"/><path class="cls-6" d="M123.47,215c0,1.64.19,3,.42,3H166.8c.23,0,.42-1.35.42-3V184.39c0-1.64-.19-1-.42-1H123.89c-.23,0-.42,1.35-.42,3Z"/><path class="cls-6" d="M172.38,215c0,1.64.19,3,.42,3h42.91c.23,0,.42-1.35.42-3V184.39c0-1.64-.19-1-.42-1H172.8c-.23,0-.42,1.35-.42,3Z"/><path class="cls-6" d="M220.93,215c0,1.64.19,3,.42,3h42.91c.23,0,.42-1.35.42-3V184.39c0-1.64-.19-1-.42-1H221.35c-.23,0-.42,1.35-.42,3Z"/><path class="cls-6" d="M269.37,215c0,1.64.19,3,.42,3H312.7c.23,0,.42-1.35.42-3V184.39c0-1.64-.19-1-.42-1H269.79c-.23,0-.42,1.35-.42,3Z"/><path class="cls-6" d="M318.28,215c0,1.64.19,3,.42,3h42.91c.23,0,.42-1.35.42-3V184.39c0-1.64-.19-1-.42-1H318.7c-.23,0-.42,1.35-.42,3Z"/><path class="cls-6" d="M366.83,215c0,1.64.19,3,.42,3h29.44c.23,0,.42-1.35.42-3l-9.54-31c0-1.64-.19-1-.42-1l-19.9.31c-.23,0-.42,1.35-.42,3Z"/><path class="cls-4" d="M202.77,334.4a35.14,35.14,0,0,1-35.29,35h0a35.14,35.14,0,0,1-35.29-35h0a35.14,35.14,0,0,1,35.29-35h0a35.14,35.14,0,0,1,35.29,35Z"/><path class="cls-7" d="M187.59,334.4a20,20,0,0,1-20.11,19.93h0a20,20,0,0,1-20.11-19.93h0a20,20,0,0,1,20.11-19.93h0a20,20,0,0,1,20.11,19.93Z"/><path class="cls-4" d="M384.49,334.4a35.14,35.14,0,0,1-35.29,35h0a35.14,35.14,0,0,1-35.29-35h0a35.14,35.14,0,0,1,35.29-35h0a35.14,35.14,0,0,1,35.29,35Z"/><path class="cls-7" d="M369.31,334.4a20,20,0,0,1-20.11,19.93h0a20,20,0,0,1-20.11-19.93h0a20,20,0,0,1,20.11-19.93h0a20,20,0,0,1,20.11,19.93Z"/></svg>