<svg id="Layer_2" data-name="Layer 2" xmlns="http://www.w3.org/2000/svg" viewBox="0 0 500 500"><defs><style>.cls-1{fill:#256e97;}.cls-2,.cls-4{fill:#e1deef;}.cls-2{opacity:0.8;}.cls-3{fill:#008394;}.cls-5{fill:#006874;}</style></defs><title>МЕРОПРИЯТИЯ города</title><rect class="cls-1" width="500" height="500" rx="250" ry="250"/><circle class="cls-2" cx="250" cy="250" r="228.78"/><rect class="cls-3" x="110.32" y="152.57" width="270.88" height="208.32" rx="39.93" ry="39.93"/><rect class="cls-4" x="114.56" y="145.28" width="270.88" height="208.32" rx="39.93" ry="39.93"/><path class="cls-5" d="M244.15,151.08V139.47c0-2,.77-3.61,1.72-3.61h8.24c1,0,1.72,1.62,1.72,3.61v11.61c0,2-.77,3.61-1.72,3.61h-8.24C244.92,154.69,244.15,153.08,244.15,151.08Z"/><path class="cls-5" d="M223.48,151.08V139.47c0-2,.77-3.61,1.72-3.61h8.24c1,0,1.72,1.62,1.72,3.61v11.61c0,2-.77,3.61-1.72,3.61H225.2C224.25,154.69,223.48,153.08,223.48,151.08Z"/><path class="cls-5" d="M202,151.08V139.47c0-2,.77-3.61,1.72-3.61H212c1,0,1.72,1.62,1.72,3.61v11.61c0,2-.77,3.61-1.72,3.61h-8.24C202.78,154.69,202,153.08,202,151.08Z"/><path class="cls-3" d="M153.41,204v-9.38c0-1.61.89-2.92,2-2.92h9.53c1.1,0,2,1.31,2,2.92V204c0,1.61-.89,2.92-2,2.92H155.4C154.3,206.91,153.41,205.6,153.41,204Z"/><path class="cls-3" d="M174.23,204v-9.38c0-1.61.89-2.92,2-2.92h9.53c1.1,0,2,1.31,2,2.92V204c0,1.61-.89,2.92-2,2.92h-9.53C175.12,206.91,174.23,205.6,174.23,204Z"/><path class="cls-3" d="M195.83,204v-9.38c0-1.61.89-2.92,2-2.92h9.53c1.1,0,2,1.31,2,2.92V204c0,1.61-.89,2.92-2,2.92h-9.53C196.72,206.91,195.83,205.6,195.83,204Z"/><path class="cls-3" d="M218.89,204v-9.38c0-1.61.89-2.92,2-2.92h9.53c1.1,0,2,1.31,2,2.92V204c0,1.61-.89,2.92-2,2.92h-9.53C219.78,206.91,218.89,205.6,218.89,204Z"/><path class="cls-3" d="M153.41,228v-9.38c0-1.61.89-2.92,2-2.92h9.53c1.1,0,2,1.31,2,2.92V228c0,1.61-.89,2.92-2,2.92H155.4C154.3,230.92,153.41,229.61,153.41,228Z"/><path class="cls-3" d="M174.23,228v-9.38c0-1.61.89-2.92,2-2.92h9.53c1.1,0,2,1.31,2,2.92V228c0,1.61-.89,2.92-2,2.92h-9.53C175.12,230.92,174.23,229.61,174.23,228Z"/><path class="cls-3" d="M195.83,228v-9.38c0-1.61.89-2.92,2-2.92h9.53c1.1,0,2,1.31,2,2.92V228c0,1.61-.89,2.92-2,2.92h-9.53C196.72,230.92,195.83,229.61,195.83,228Z"/><path class="cls-3" d="M218.89,228v-9.38c0-1.61.89-2.92,2-2.92h9.53c1.1,0,2,1.31,2,2.92V228c0,1.61-.89,2.92-2,2.92h-9.53C219.78,230.92,218.89,229.61,218.89,228Z"/><path class="cls-3" d="M153.41,252v-9.38c0-1.61.89-2.92,2-2.92h9.53c1.1,0,2,1.31,2,2.92V252c0,1.61-.89,2.92-2,2.92H155.4C154.3,254.93,153.41,253.62,153.41,252Z"/><path class="cls-3" d="M174.23,252v-9.38c0-1.61.89-2.92,2-2.92h9.53c1.1,0,2,1.31,2,2.92V252c0,1.61-.89,2.92-2,2.92h-9.53C175.12,254.93,174.23,253.62,174.23,252Z"/><path class="cls-3" d="M195.83,252v-9.38c0-1.61.89-2.92,2-2.92h9.53c1.1,0,2,1.31,2,2.92V252c0,1.61-.89,2.92-2,2.92h-9.53C196.72,254.93,195.83,253.62,195.83,252Z"/><path class="cls-3" d="M218.89,252v-9.38c0-1.61.89-2.92,2-2.92h9.53c1.1,0,2,1.31,2,2.92V252c0,1.61-.89,2.92-2,2.92h-9.53C219.78,254.93,218.89,253.62,218.89,252Z"/><path class="cls-3" d="M153.41,276v-9.38c0-1.61.89-2.92,2-2.92h9.53c1.1,0,2,1.31,2,2.92V276c0,1.61-.89,2.92-2,2.92H155.4C154.3,278.94,153.41,277.64,153.41,276Z"/><path class="cls-3" d="M174.23,276v-9.38c0-1.61.89-2.92,2-2.92h9.53c1.1,0,2,1.31,2,2.92V276c0,1.61-.89,2.92-2,2.92h-9.53C175.12,278.94,174.23,277.64,174.23,276Z"/><path class="cls-3" d="M195.83,276v-9.38c0-1.61.89-2.92,2-2.92h9.53c1.1,0,2,1.31,2,2.92V276c0,1.61-.89,2.92-2,2.92h-9.53C196.72,278.94,195.83,277.64,195.83,276Z"/><path class="cls-3" d="M218.89,276v-9.38c0-1.61.89-2.92,2-2.92h9.53c1.1,0,2,1.31,2,2.92V276c0,1.61-.89,2.92-2,2.92h-9.53C219.78,278.94,218.89,277.64,218.89,276Z"/><path class="cls-3" d="M153.41,300v-9.38c0-1.61.89-2.92,2-2.92h9.53c1.1,0,2,1.31,2,2.92V300c0,1.61-.89,2.92-2,2.92H155.4C154.3,303,153.41,301.65,153.41,300Z"/><path class="cls-3" d="M174.23,300v-9.38c0-1.61.89-2.92,2-2.92h9.53c1.1,0,2,1.31,2,2.92V300c0,1.61-.89,2.92-2,2.92h-9.53C175.12,303,174.23,301.65,174.23,300Z"/><path class="cls-3" d="M195.83,300v-9.38c0-1.61.89-2.92,2-2.92h9.53c1.1,0,2,1.31,2,2.92V300c0,1.61-.89,2.92-2,2.92h-9.53C196.72,303,195.83,301.65,195.83,300Z"/><path class="cls-3" d="M218.89,300v-9.38c0-1.61.89-2.92,2-2.92h9.53c1.1,0,2,1.31,2,2.92V300c0,1.61-.89,2.92-2,2.92h-9.53C219.78,303,218.89,301.65,218.89,300Z"/><path class="cls-5" d="M153.41,324.05v-9.38c0-1.61.89-2.92,2-2.92h9.53c1.1,0,2,1.31,2,2.92v9.38c0,1.61-.89,2.92-2,2.92H155.4C154.3,327,153.41,325.66,153.41,324.05Z"/><path class="cls-5" d="M174.23,324.05v-9.38c0-1.61.89-2.92,2-2.92h9.53c1.1,0,2,1.31,2,2.92v9.38c0,1.61-.89,2.92-2,2.92h-9.53C175.12,327,174.23,325.66,174.23,324.05Z"/><path class="cls-5" d="M195.83,324.05v-9.38c0-1.61.89-2.92,2-2.92h9.53c1.1,0,2,1.31,2,2.92v9.38c0,1.61-.89,2.92-2,2.92h-9.53C196.72,327,195.83,325.66,195.83,324.05Z"/><path class="cls-5" d="M218.89,324.05v-9.38c0-1.61.89-2.92,2-2.92h9.53c1.1,0,2,1.31,2,2.92v9.38c0,1.61-.89,2.92-2,2.92h-9.53C219.78,327,218.89,325.66,218.89,324.05Z"/><path class="cls-3" d="M265.27,204v-9.38c0-1.61.89-2.92,2-2.92h9.53c1.1,0,2,1.31,2,2.92V204c0,1.61-.89,2.92-2,2.92h-9.53C266.16,206.91,265.27,205.6,265.27,204Z"/><path class="cls-3" d="M286.09,204v-9.38c0-1.61.89-2.92,2-2.92h9.53c1.1,0,2,1.31,2,2.92V204c0,1.61-.89,2.92-2,2.92h-9.53C287,206.91,286.09,205.6,286.09,204Z"/><path class="cls-3" d="M307.69,204v-9.38c0-1.61.89-2.92,2-2.92h9.53c1.1,0,2,1.31,2,2.92V204c0,1.61-.89,2.92-2,2.92h-9.53C308.58,206.91,307.69,205.6,307.69,204Z"/><path class="cls-3" d="M330.74,204v-9.38c0-1.61.89-2.92,2-2.92h9.53c1.1,0,2,1.31,2,2.92V204c0,1.61-.89,2.92-2,2.92h-9.53C331.64,206.91,330.74,205.6,330.74,204Z"/><path class="cls-3" d="M265.27,228v-9.38c0-1.61.89-2.92,2-2.92h9.53c1.1,0,2,1.31,2,2.92V228c0,1.61-.89,2.92-2,2.92h-9.53C266.16,230.92,265.27,229.61,265.27,228Z"/><path class="cls-3" d="M286.09,228v-9.38c0-1.61.89-2.92,2-2.92h9.53c1.1,0,2,1.31,2,2.92V228c0,1.61-.89,2.92-2,2.92h-9.53C287,230.92,286.09,229.61,286.09,228Z"/><path class="cls-3" d="M307.69,228v-9.38c0-1.61.89-2.92,2-2.92h9.53c1.1,0,2,1.31,2,2.92V228c0,1.61-.89,2.92-2,2.92h-9.53C308.58,230.92,307.69,229.61,307.69,228Z"/><path class="cls-3" d="M330.74,228v-9.38c0-1.61.89-2.92,2-2.92h9.53c1.1,0,2,1.31,2,2.92V228c0,1.61-.89,2.92-2,2.92h-9.53C331.64,230.92,330.74,229.61,330.74,228Z"/><path class="cls-3" d="M265.27,252v-9.38c0-1.61.89-2.92,2-2.92h9.53c1.1,0,2,1.31,2,2.92V252c0,1.61-.89,2.92-2,2.92h-9.53C266.16,254.93,265.27,253.62,265.27,252Z"/><path class="cls-3" d="M286.09,252v-9.38c0-1.61.89-2.92,2-2.92h9.53c1.1,0,2,1.31,2,2.92V252c0,1.61-.89,2.92-2,2.92h-9.53C287,254.93,286.09,253.62,286.09,252Z"/><path class="cls-3" d="M307.69,252v-9.38c0-1.61.89-2.92,2-2.92h9.53c1.1,0,2,1.31,2,2.92V252c0,1.61-.89,2.92-2,2.92h-9.53C308.58,254.93,307.69,253.62,307.69,252Z"/><path class="cls-3" d="M330.74,252v-9.38c0-1.61.89-2.92,2-2.92h9.53c1.1,0,2,1.31,2,2.92V252c0,1.61-.89,2.92-2,2.92h-9.53C331.64,254.93,330.74,253.62,330.74,252Z"/><path class="cls-3" d="M265.27,276v-9.38c0-1.61.89-2.92,2-2.92h9.53c1.1,0,2,1.31,2,2.92V276c0,1.61-.89,2.92-2,2.92h-9.53C266.16,278.94,265.27,277.64,265.27,276Z"/><path class="cls-3" d="M286.09,276v-9.38c0-1.61.89-2.92,2-2.92h9.53c1.1,0,2,1.31,2,2.92V276c0,1.61-.89,2.92-2,2.92h-9.53C287,278.94,286.09,277.64,286.09,276Z"/><path class="cls-3" d="M307.69,276v-9.38c0-1.61.89-2.92,2-2.92h9.53c1.1,0,2,1.31,2,2.92V276c0,1.61-.89,2.92-2,2.92h-9.53C308.58,278.94,307.69,277.64,307.69,276Z"/><path class="cls-3" d="M330.74,276v-9.38c0-1.61.89-2.92,2-2.92h9.53c1.1,0,2,1.31,2,2.92V276c0,1.61-.89,2.92-2,2.92h-9.53C331.64,278.94,330.74,277.64,330.74,276Z"/><path class="cls-3" d="M265.27,300v-9.38c0-1.61.89-2.92,2-2.92h9.53c1.1,0,2,1.31,2,2.92V300c0,1.61-.89,2.92-2,2.92h-9.53C266.16,303,265.27,301.65,265.27,300Z"/><path class="cls-3" d="M286.09,300v-9.38c0-1.61.89-2.92,2-2.92h9.53c1.1,0,2,1.31,2,2.92V300c0,1.61-.89,2.92-2,2.92h-9.53C287,303,286.09,301.65,286.09,300Z"/><path class="cls-3" d="M307.69,300v-9.38c0-1.61.89-2.92,2-2.92h9.53c1.1,0,2,1.31,2,2.92V300c0,1.61-.89,2.92-2,2.92h-9.53C308.58,303,307.69,301.65,307.69,300Z"/><path class="cls-3" d="M330.74,300v-9.38c0-1.61.89-2.92,2-2.92h9.53c1.1,0,2,1.31,2,2.92V300c0,1.61-.89,2.92-2,2.92h-9.53C331.64,303,330.74,301.65,330.74,300Z"/><path class="cls-5" d="M265.27,324.05v-9.38c0-1.61.89-2.92,2-2.92h9.53c1.1,0,2,1.31,2,2.92v9.38c0,1.61-.89,2.92-2,2.92h-9.53C266.16,327,265.27,325.66,265.27,324.05Z"/><path class="cls-5" d="M286.09,324.05v-9.38c0-1.61.89-2.92,2-2.92h9.53c1.1,0,2,1.31,2,2.92v9.38c0,1.61-.89,2.92-2,2.92h-9.53C287,327,286.09,325.66,286.09,324.05Z"/><path class="cls-5" d="M307.69,324.05v-9.38c0-1.61.89-2.92,2-2.92h9.53c1.1,0,2,1.31,2,2.92v9.38c0,1.61-.89,2.92-2,2.92h-9.53C308.58,327,307.69,325.66,307.69,324.05Z"/><path class="cls-5" d="M330.74,324.05v-9.38c0-1.61.89-2.92,2-2.92h9.53c1.1,0,2,1.31,2,2.92v9.38c0,1.61-.89,2.92-2,2.92h-9.53C331.64,327,330.74,325.66,330.74,324.05Z"/><path class="cls-5" d="M181,151.08V139.47c0-2,.77-3.61,1.72-3.61h8.24c1,0,1.72,1.62,1.72,3.61v11.61c0,2-.77,3.61-1.72,3.61h-8.24C181.76,154.69,181,153.08,181,151.08Z"/><path class="cls-5" d="M159.25,151.08V139.47c0-2,.77-3.61,1.72-3.61h8.24c1,0,1.72,1.62,1.72,3.61v11.61c0,2-.77,3.61-1.72,3.61H161C160,154.69,159.25,153.08,159.25,151.08Z"/><path class="cls-5" d="M329.49,151.08V139.47c0-2,.77-3.61,1.72-3.61h8.24c1,0,1.72,1.62,1.72,3.61v11.61c0,2-.77,3.61-1.72,3.61h-8.24C330.26,154.69,329.49,153.08,329.49,151.08Z"/><path class="cls-5" d="M308,151.08V139.47c0-2,.77-3.61,1.72-3.61H318c1,0,1.72,1.62,1.72,3.61v11.61c0,2-.77,3.61-1.72,3.61h-8.24C308.8,154.69,308,153.08,308,151.08Z"/><path class="cls-5" d="M287,151.08V139.47c0-2,.77-3.61,1.72-3.61H297c1,0,1.72,1.62,1.72,3.61v11.61c0,2-.77,3.61-1.72,3.61h-8.24C287.77,154.69,287,153.08,287,151.08Z"/><path class="cls-5" d="M265.27,151.08V139.47c0-2,.77-3.61,1.72-3.61h8.24c1,0,1.72,1.62,1.72,3.61v11.61c0,2-.77,3.61-1.72,3.61H267C266,154.69,265.27,153.08,265.27,151.08Z"/></svg>