<svg id="Layer_2" data-name="Layer 2" xmlns="http://www.w3.org/2000/svg" viewBox="0 0 500 500"><defs><style>.cls-1{fill:#256e97;}.cls-2{fill:#e1deef;opacity:0.8;}.cls-3{fill:#00bad3;}.cls-4{fill:#008394;}.cls-5,.cls-6{fill:#006874;}.cls-5{opacity:0.11;}</style></defs><title>ОБРАЩЕНИЯ</title><rect class="cls-1" width="500" height="500" rx="250" ry="250"/><circle class="cls-2" cx="250" cy="250" r="228.78"/><path class="cls-3" d="M409.93,220v5a74,74,0,0,1-74.27,74.25H308.91l16.78,44.37-63.91-44.37H253a75,75,0,0,1-14.64-1.43q-3.34-.66-6.56-1.61A73.8,73.8,0,0,1,179.12,225v-5c0-.61,0-1.22,0-1.82.95-40.36,33.28-72.66,73.88-72.66h82.63A74.21,74.21,0,0,1,409.93,220Z"/><path class="cls-4" d="M235.86,273.3v3.29a49.11,49.11,0,0,1-4,19.62,48.42,48.42,0,0,1-44.61,29.12h-5.75L140,354.1l-.54.38,9.7-25.66,1.32-3.49H132.93A48.68,48.68,0,0,1,84,276.59V273.3a48.74,48.74,0,0,1,48.9-48.81h54.28A48.54,48.54,0,0,1,235.86,273.3Z"/><path class="cls-5" d="M243.25,271.72v3.61a53.8,53.8,0,0,1-4.87,22.49q-3.34-.66-6.56-1.61a49.11,49.11,0,0,0,4-19.62V273.3a48.54,48.54,0,0,0-48.65-48.81h-8.09V220c0-.61,0-1.22,0-1.82h10.72A53.26,53.26,0,0,1,243.25,271.72Z"/><circle class="cls-6" cx="123.84" cy="276.28" r="10.77"/><circle class="cls-6" cx="158.74" cy="276.28" r="10.77"/><circle class="cls-6" cx="193.65" cy="276.28" r="10.77"/></svg>