<svg id="Layer_2" data-name="Layer 2" xmlns="http://www.w3.org/2000/svg" viewBox="0 0 500 500"><defs><style>.cls-1{fill:#256e97;}.cls-2{fill:#e1deef;opacity:0.8;}.cls-3{fill:#008394;}.cls-4{fill:#006874;}.cls-5{fill:#164665;}.cls-6{fill:#2a597c;}</style></defs><title>ОБРАЗОВАТЕЛЬНЫЕ</title><rect class="cls-1" width="500" height="500" rx="250" ry="250"/><circle class="cls-2" cx="250" cy="250" r="228.78"/><polygon class="cls-3" points="381.17 328 143.45 328 143.45 195.13 350.06 195.13 381.17 328"/><polygon class="cls-4" points="246.73 328 112.69 328 143.42 195.13 246.73 195.13 246.73 328"/><polygon class="cls-3" points="68.84 186 68.84 192.26 245.84 251.03 442.78 192.6 442.78 186 68.84 186"/><polygon class="cls-4" points="68.84 186.09 245.32 244.68 442.78 186.09 255.81 145.59 68.84 186.09"/><polygon class="cls-5" points="376.12 279.47 380.33 279.47 380.33 204.61 253.59 178.95 252.75 183.08 376.12 208.06 376.12 279.47"/><ellipse class="cls-5" cx="246.73" cy="180.84" rx="19.51" ry="5.92"/><path class="cls-6" d="M367.38,291.55v-6.86a10.9,10.9,0,0,1,21.8,0v6.86Z"/><path class="cls-6" d="M361.53,306.06c1.67,2.29,16.76,2.07,16.76,2.07s15.5.14,16.82-2.37-8.53-14.46-8.53-14.46l-8.53-14.46-8.26,14.62S359.86,303.77,361.53,306.06Z"/></svg>