<svg id="Layer_2" data-name="Layer 2" xmlns="http://www.w3.org/2000/svg" viewBox="0 0 500 500"><defs><style>.cls-1{fill:#256e97;}.cls-2,.cls-6{fill:#e1deef;}.cls-2{opacity:0.8;}.cls-3{fill:#006874;}.cls-4,.cls-8{fill:#2a597c;}.cls-5{fill:#008394;}.cls-7{fill:#08304e;}.cls-8{font-size:66.35px;font-family:Rockwell-ExtraBold, Rockwell Extra Bold;}</style></defs><title>ПОЖАРНЫЕ СТАНЦИИ</title><rect class="cls-1" width="500" height="500" rx="250" ry="250"/><ellipse class="cls-2" cx="250" cy="250" rx="228.59" ry="228.78"/><polygon class="cls-3" points="246.11 359.62 128.42 359.62 128.42 368.82 246.11 368.82 363.79 368.82 363.79 359.62 246.11 359.62"/><rect class="cls-4" x="372.24" y="165.18" width="7.28" height="186.5"/><rect class="cls-4" x="355.6" y="171.9" width="20.28" height="3.64"/><rect class="cls-4" x="355.6" y="182.34" width="20.28" height="3.64"/><rect class="cls-4" x="355.6" y="192.78" width="20.28" height="3.64"/><rect class="cls-4" x="355.6" y="203.22" width="20.28" height="3.64"/><rect class="cls-4" x="355.6" y="213.66" width="20.28" height="3.64"/><rect class="cls-4" x="355.6" y="224.09" width="20.28" height="3.64"/><rect class="cls-4" x="355.6" y="236.21" width="20.28" height="2.62"/><rect class="cls-4" x="355.6" y="244.97" width="20.28" height="3.64"/><rect class="cls-4" x="355.6" y="255.41" width="20.28" height="3.64"/><rect class="cls-4" x="355.6" y="265.85" width="20.28" height="3.64"/><rect class="cls-4" x="355.6" y="276.28" width="20.28" height="3.64"/><rect class="cls-4" x="355.6" y="286.72" width="20.28" height="3.64"/><rect class="cls-4" x="355.6" y="297.16" width="20.28" height="3.64"/><rect class="cls-4" x="355.6" y="307.6" width="20.28" height="3.64"/><rect class="cls-4" x="355.6" y="318.04" width="20.28" height="3.64"/><rect class="cls-4" x="355.6" y="328.48" width="20.28" height="3.64"/><rect class="cls-4" x="355.6" y="338.92" width="20.28" height="3.64"/><rect class="cls-5" x="136.61" y="153.4" width="218.99" height="206.21"/><polygon class="cls-3" points="246.11 133.39 120.48 133.39 129.28 154.62 246.11 154.62 362.93 154.62 371.73 133.39 246.11 133.39"/><polygon class="cls-3" points="246.11 215.26 129.28 215.26 129.28 236.5 246.11 236.5 362.93 236.5 362.93 215.26 246.11 215.26"/><rect class="cls-6" x="151.77" y="165.18" width="32.5" height="41.59"/><path class="cls-4" d="M186.09,208.6H149.95V163.36h36.15ZM153.59,205h28.87V167H153.59Z"/><rect class="cls-3" x="145.9" y="198.22" width="44.97" height="7.28"/><rect class="cls-6" x="203.58" y="165.18" width="32.51" height="41.59"/><path class="cls-4" d="M237.9,208.6H201.76V163.36H237.9ZM205.4,205h28.87V167H205.4Z"/><rect class="cls-3" x="197.71" y="198.22" width="44.97" height="7.28"/><rect class="cls-6" x="255.39" y="165.18" width="32.51" height="41.59"/><path class="cls-4" d="M289.72,208.6H253.57V163.36h36.14ZM257.21,205h28.87V167H257.21Z"/><rect class="cls-3" x="249.53" y="198.22" width="44.97" height="7.28"/><rect class="cls-6" x="307.21" y="165.18" width="32.51" height="41.59"/><path class="cls-4" d="M341.53,208.6H305.39V163.36h36.14ZM309,205h28.87V167H309Z"/><rect class="cls-3" x="301.34" y="198.22" width="44.97" height="7.28"/><rect class="cls-4" x="151.77" y="182.34" width="32.5" height="3.64"/><rect class="cls-4" x="203.58" y="182.34" width="32.51" height="3.64"/><rect class="cls-4" x="255.39" y="182.34" width="32.51" height="3.64"/><rect class="cls-4" x="307.21" y="182.34" width="32.51" height="3.64"/><path class="cls-7" d="M233.62,284.71c-.73-9-19.3-22.2-42.12-22.2s-41.4,13.17-42.13,22.2h0v74.9h84.32v-74.9Z"/><path class="cls-7" d="M258.59,284.71c.73-9,19.31-22.2,42.13-22.2s41.4,13.17,42.12,22.2h0v74.9H258.56v-74.9Z"/><text class="cls-8" transform="translate(181.52 120)">101</text></svg>