<?xml version="1.0" encoding="utf-8"?>
<!-- Generator: Adobe Illustrator 22.1.0, SVG Export Plug-In . SVG Version: 6.00 Build 0)  -->
<svg version="1.1" id="Layer_2_1_" xmlns="http://www.w3.org/2000/svg" xmlns:xlink="http://www.w3.org/1999/xlink" x="0px" y="0px"
	 viewBox="0 0 500 500" style="enable-background:new 0 0 500 500;" xml:space="preserve">
<style type="text/css">
	.st0{fill:#256E97;}
	.st1{opacity:0.8;fill:#E1DEEF;enable-background:new    ;}
	.st2{fill:#E1DEEF;}
	.st3{fill:#008394;}
	.st4{fill:#006874;}
</style>
<title>Земельные торги</title>
<path class="st0" d="M250.1,498.2L250.1,498.2c-138.1,0-250-111.4-250-248.8l0,0C0.1,111.9,112,0.5,250.1,0.5l0,0
	c138.1,0,250,111.4,250,248.8l0,0C500.1,386.8,388.2,498.2,250.1,498.2z"/>
<ellipse class="st1" cx="250.1" cy="249.4" rx="228.8" ry="227.7"/>
<polygon class="st2" points="148,169 148,376.7 165,392 340,392 360,368 360,140 337,123 157,123 148,158.8 "/>
<polygon class="st3" points="204,127 204,163.5 293,163.5 293,127 262.5,96.5 235.5,96.5 "/>
<path class="st4" d="M332.9,110.1h-46.6c-5.1-14.4-18.8-24.7-34.9-24.7s-29.8,10.3-34.9,24.7h-47.2c-20.4,0-37,16.6-37,37v217.3
	c0,20.4,16.6,37,37,37h163.6c20.4,0,37-16.6,37-37V147.1C369.9,126.7,353.3,110.1,332.9,110.1z M239.1,134.8v-12.3
	c0-6.8,5.5-12.3,12.3-12.3c6.8,0,12.3,5.5,12.3,12.3v12.3h24.7v24.1h-74.1v-24.1H239.1z M345.2,364.3c0,6.8-5.5,12.3-12.3,12.3
	H169.3c-6.8,0-12.3-5.5-12.3-12.3V147.1c0-6.8,5.5-12.3,12.3-12.3h20.4v48.8h123.4v-48.8h19.8c6.8,0,12.3,5.5,12.3,12.3V364.3z
	 M298.4,227.4l18.3,16.6l-79.1,86.9l-52.2-50.5l17.2-17.7l33.9,32.8L298.4,227.4z"/>
</svg>
