<svg id="Layer_2" data-name="Layer 2" xmlns="http://www.w3.org/2000/svg" viewBox="0 0 500 500"><defs><style>.cls-1{fill:#256e97;}.cls-2{fill:#e1deef;opacity:0.8;}.cls-3{fill:#7c1617;}.cls-4{fill:#00bad3;}.cls-5{fill:#008394;}</style></defs><title>ПРАВООХРАНИТЕЛЬНЫЕ ОРГАНЫ</title><rect class="cls-1" width="500" height="500" rx="250" ry="250"/><circle class="cls-2" cx="250" cy="250" r="228.78"/><path class="cls-3" d="M155.25,375.66A21.51,21.51,0,0,0,170.49,382h0A21.51,21.51,0,0,1,155.25,375.66Z"/><path class="cls-4" d="M251.1,123.28a6.13,6.13,0,0,0-2.83,1.26c-11.14,7.23-22.16,14.8-33.71,21.25-23.23,13-47.65,22.9-73.56,28.47-1.84.4-3.14.92-3.21,3.54-.57,21.28.65,42.2,5,63a194.68,194.68,0,0,0,7.3,26.73H250.18Z"/><path class="cls-4" d="M249.35,397.46c34.11-22.8,61.27-52.42,81.76-88.49a227.09,227.09,0,0,0,18.49-41.39H250.18Z"/><path class="cls-5" d="M362.15,177.49c-.1-2.78-1.19-3.64-3.49-4.16-38.14-8.67-72.78-25.55-104.68-48.74a4.55,4.55,0,0,0-2.88-1.11L250.18,268H349.6C359.29,239.24,363.29,209,362.15,177.49Z"/><path class="cls-5" d="M150.1,268c9.9,29.75,25.28,56.59,45.49,80.87a252,252,0,0,0,53.76,48.81L250.18,268Z"/></svg>