<svg id="Layer_2" data-name="Layer 2" xmlns="http://www.w3.org/2000/svg" viewBox="0 0 500 500"><defs><style>.cls-1{fill:#256e97;}.cls-2,.cls-3{fill:#e1deef;}.cls-2{opacity:0.8;}.cls-4{fill:#19334b;}.cls-5{fill:#006874;}.cls-6{font-size:87.08px;fill:#2a597c;font-family:Rockwell-ExtraBold, Rockwell Extra Bold;}</style></defs><title>УСЛУГИ</title><rect class="cls-1" width="500" height="500" rx="250" ry="250"/><circle class="cls-2" cx="250" cy="250" r="228.78"/><path class="cls-3" d="M404.54,256.35a155.19,155.19,0,1,1-155.2-155.19A155.19,155.19,0,0,1,404.54,256.35Z"/><rect class="cls-4" x="281.86" y="196.61" width="9.95" height="126.42" transform="translate(-91.48 178.22) rotate(-30)"/><path class="cls-5" d="M249.34,101.16A155.19,155.19,0,1,1,94.16,256.35,155.19,155.19,0,0,1,249.34,101.16m0-13.64a170,170,0,0,0-34,3.43,168,168,0,0,0-60.39,25.41,169.29,169.29,0,0,0-61.15,74.27,168.09,168.09,0,0,0-9.84,31.71,170.33,170.33,0,0,0,0,68,168,168,0,0,0,25.41,60.39,169.29,169.29,0,0,0,74.27,61.15,168.06,168.06,0,0,0,31.71,9.84,170.34,170.34,0,0,0,68,0,168,168,0,0,0,60.4-25.41,169.28,169.28,0,0,0,61.16-74.27,168.07,168.07,0,0,0,9.84-31.71,170.34,170.34,0,0,0,0-68,168,168,0,0,0-25.41-60.39,169.28,169.28,0,0,0-74.27-61.15,168.1,168.1,0,0,0-31.71-9.84,170,170,0,0,0-34-3.43Z"/><path class="cls-4" d="M251.91,147.68h0a4,4,0,0,1-4-4V120.22a4,4,0,0,1,4-4h0a4,4,0,0,1,4,4v23.49A4,4,0,0,1,251.91,147.68Z"/><path class="cls-4" d="M329.58,181.82h0a4,4,0,0,1,0-5.61l16.6-16.62a4,4,0,0,1,5.61,0h0a4,4,0,0,1,0,5.61l-16.6,16.62A4,4,0,0,1,329.58,181.82Z"/><path class="cls-4" d="M360,259.84h0a4,4,0,0,1,4-4l23.49,0a4,4,0,0,1,4,4h0a4,4,0,0,1-4,4l-23.49,0A4,4,0,0,1,360,259.84Z"/><path class="cls-4" d="M327.72,335.06h0a4,4,0,0,1,5.61,0L350,351.64a4,4,0,0,1,0,5.61h0a4,4,0,0,1-5.61,0l-16.64-16.58A4,4,0,0,1,327.72,335.06Z"/><path class="cls-4" d="M252.14,368.07h0a4,4,0,0,1,4,4l0,23.49a4,4,0,0,1-4,4h0a4,4,0,0,1-4-4l0-23.49A4,4,0,0,1,252.14,368.07Z"/><path class="cls-4" d="M174.11,338.16h0a4,4,0,0,1,0,5.61l-16.57,16.65a4,4,0,0,1-5.61,0h0a4,4,0,0,1,0-5.61l16.57-16.65A4,4,0,0,1,174.11,338.16Z"/><path class="cls-4" d="M140.09,260.31h0a4,4,0,0,1-4,4l-23.49.07a4,4,0,0,1-4-4h0a4,4,0,0,1,4-4l23.49-.07A4,4,0,0,1,140.09,260.31Z"/><path class="cls-4" d="M172.23,180.85h0a4,4,0,0,1-5.61,0l-16.67-16.55a4,4,0,0,1,0-5.61h0a4,4,0,0,1,5.61,0l16.67,16.55A4,4,0,0,1,172.23,180.85Z"/><text class="cls-6" transform="translate(134.75 289.37)">24 </text><text class="cls-6" transform="translate(306.16 284.43)">7</text></svg>