<svg id="Layer_2" data-name="Layer 2" xmlns="http://www.w3.org/2000/svg" viewBox="0 0 500 500"><defs><style>.cls-1{fill:#256e97;}.cls-2,.cls-5{fill:#e1deef;}.cls-2{opacity:0.8;}.cls-3{fill:#006874;}.cls-4,.cls-7{fill:#008394;}.cls-6{fill:#7c1617;}.cls-7{opacity:0.5;}</style></defs><title>Справочник организации</title><rect class="cls-1" width="500" height="500" rx="250" ry="250"/><circle class="cls-2" cx="250" cy="250" r="228.78"/><path class="cls-3" d="M354.52,95.44v242h-6.15v44.9h6.15V388H171a29.43,29.43,0,0,1-8.81-1.33c-12.05-3.75-16.34-14.89-18.7-27.6l-.7-229.57c0-18.1,13.27-34,31.37-34Z"/><polygon class="cls-4" points="354.51 331.84 171.77 331.84 171.77 96.23 354.52 95.96 354.51 331.84"/><path class="cls-5" d="M349.45,337.45v44.9H173.71a22.43,22.43,0,0,1-17.63-5.92c-4.22-3.68-6.59-9.48-6.9-15,0-.37,0-.74,0-1.11V359c0-.46,0-.93,0-1.37a21.18,21.18,0,0,1,10.15-17,36.36,36.36,0,0,1,5-2.31c3-1.09,5.92-.91,9.33-.91Z"/><path class="cls-3" d="M149.19,357.66a21.47,21.47,0,0,1,9.37-16.5,20.69,20.69,0,0,1,11.79-3.7H354.52v-5.61h-184a27,27,0,0,0-27,27.19v1.28a27.77,27.77,0,0,0,18.7,26.32,25.93,25.93,0,0,0,8.25,1.33h184v-5.61h-184a21.5,21.5,0,0,1-15.12-6.57,21.89,21.89,0,0,1-6.19-14.37c0-.37,0-.74,0-1.11V359C149.15,358.57,149.16,358.1,149.19,357.66Z"/><path class="cls-6" d="M155.25,375.66A21.51,21.51,0,0,0,170.49,382h0A21.51,21.51,0,0,1,155.25,375.66Z"/><path class="cls-5" d="M323.64,124.18H194.29V313.1H327.64V124.18Zm-.44,4.45v180H197.62v-180H323.2Z"/><polygon class="cls-7" points="181.6 337.52 349.62 355.61 349.62 337.59 181.6 337.52"/><rect class="cls-5" x="222.61" y="170.03" width="75.79" height="9.59"/><rect class="cls-5" x="222.42" y="189.54" width="75.79" height="9.59"/><rect class="cls-5" x="222.42" y="209.05" width="75.79" height="9.59"/></svg>