<svg id="Layer_2" data-name="Layer 2" xmlns="http://www.w3.org/2000/svg" viewBox="0 0 500 500"><defs><style>.cls-1{fill:#256e97;}.cls-2{fill:#e1deef;opacity:0.8;}.cls-3{fill:#006874;}.cls-4{fill:#008394;}.cls-5{fill:#00bad3;}</style></defs><title>статистика</title><rect class="cls-1" width="500" height="500" rx="250" ry="250"/><ellipse class="cls-2" cx="250" cy="250" rx="228.77" ry="228.78"/><path class="cls-3" d="M227.17,120.09c-74.82,1.55-135,61.52-135,135.33,0,74.78,61.77,135.4,138,135.4a139.49,139.49,0,0,0,61.2-14L224.11,255.41Z"/><path class="cls-4" d="M247.94,99,243.3,245.31,384,285.84A146.36,146.36,0,0,0,247.94,99Z"/><polyline class="cls-5" points="342.13 400.98 237.56 255.45 407.83 314.23"/><path class="cls-5" d="M407.83,314.23,237.56,255.45,342.13,401A181.19,181.19,0,0,0,407.83,314.23Z"/></svg>