<svg id="Layer_2" data-name="Layer 2" xmlns="http://www.w3.org/2000/svg" viewBox="0 0 500 500"><defs><style>.cls-1{fill:#256e97;}.cls-2{fill:#e1deef;opacity:0.8;}.cls-3{fill:#006874;}.cls-4{fill:#008394;}</style></defs><title>Земельные торги</title><path class="cls-1" d="M250,499.54h0C111.93,499.54,0,388.14,0,250.71H0C0,113.28,111.93,1.88,250,1.88h0c138.07,0,250,111.41,250,248.83h0C500,388.14,388.07,499.54,250,499.54Z"/><ellipse class="cls-2" cx="250" cy="250.71" rx="228.78" ry="227.72"/><path class="cls-3" d="M415.54,344.23c-2.13-7.42-6-13.25-14-15.33-1.38-.36-2.87-.37-4.23-.77a3.25,3.25,0,0,1-2-1.45c-1.3-3.54-4-4.41-7.41-4.4-15.38,0-30.77,0-46.15,0q-40.92,0-81.85,0c-4,0-7.5.25-8.89,4.87-.16.55-1.49.94-2.33,1.06-12.23,1.78-19.54,11.39-17.76,23.44.5,3.38,2.77,5.11,7.06,5.12,11.78,0,23.56,0,35.34,0q67.07,0,134.13,0c3.54,0,6.37-.76,8.16-4Z"/><path class="cls-4" d="M256.37,230.13c4.64,5.62,8.49,5,11.55-1.47a2.78,2.78,0,0,1,1.78-1.35c2.23-.38,4.5-.53,7-.79,1.45,4.38,2.93,8.64,4.24,13,.24.79-.36,1.79-.29,2.67.17,2.12-.2,4.86,1,6.16s4.09,1.94,6.07,1.66c5-.72,9,3.25,7.43,8.23a5,5,0,0,1-2.36,2.37c-6,3.31-8.1,8.33-6.15,14.76.35,1.14.77,2.26,1.15,3.4,2.62,7.94,8.29,10.92,16.21,8.38q26.56-8.52,53.08-17.15c3.88-1.26,7.79-2.44,11.62-3.82,6.26-2.26,9.16-8,7.34-14.36-.53-1.84-1.08-3.67-1.73-5.47-2-5.55-6.77-8.44-12.69-7.78-4.57.51-8.49-4.68-6.59-9a5.18,5.18,0,0,1,3-2.16c2.65-.87,4.49-2.36,4.81-5.19s-1.06-4.46-3.32-5.87a5.4,5.4,0,0,1-1.9-2.78q-8.5-25.7-16.83-51.45c-.36-1.1.25-2.48.12-3.7-.23-2.12,0-4.87-1.26-6.15s-4.11-1.71-6.11-1.41c-4,.6-5.26.33-6.63-3.31-1.26-3.34-1.38-6.19,2.24-7.79,5.39-2.39,7.49-7.89,5.9-13.53-.49-1.72-1.07-3.42-1.66-5.11-2.41-6.83-8.27-9.93-15.13-7.73q-32.39,10.38-64.71,20.95c-7.12,2.33-10.06,8.18-7.92,15.27a56.3,56.3,0,0,0,1.95,5.77,11.45,11.45,0,0,0,12.59,6.83c3.69-.59,5,.51,6.32,5,.9,3.11.37,5.06-3.11,6.39a9.09,9.09,0,0,0-4.51,4.86c-.94,2.43.72,4.46,3,5.89a5.56,5.56,0,0,1,2,2.71c1.37,3.82,2.55,7.71,3.94,12l-6.38,3.73c-3.14-.82-5.6-2.22-7.66-1.77-1.7.37-3.74,2.75-4.14,4.56-.47,2.15-1.26,3-3.15,3.53q-80.54,24.61-161.08,49.23a13.71,13.71,0,0,1-5.28.31c-8.29-.87-15.74,3.59-18.5,11.22A17.15,17.15,0,0,0,68.32,290a17.58,17.58,0,0,0,21.62-1.94,12.38,12.38,0,0,1,4.1-2.7q80.54-27.52,161.12-54.91C255.49,230.38,255.84,230.29,256.37,230.13Z"/><path class="cls-3" d="M232.6,241.92,125.12,278.24a17.06,17.06,0,0,1-21.55-10.58h0a16.94,16.94,0,0,1,10.63-21.45l107.48-36.32a17.06,17.06,0,0,1,21.55,10.58h0A16.94,16.94,0,0,1,232.6,241.92Z"/><path class="cls-3" d="M325.5,238.94l-4.3,1.38a41.82,41.82,0,0,1-52.44-26.71h0a41.54,41.54,0,0,1,26.83-52.2l4.3-1.38a41.82,41.82,0,0,1,52.44,26.71h0A41.54,41.54,0,0,1,325.5,238.94Z"/></svg>