<svg id="Layer_2" data-name="Layer 2" xmlns="http://www.w3.org/2000/svg" xmlns:xlink="http://www.w3.org/1999/xlink" viewBox="0 0 500 500"><defs><style>.cls-1{fill:none;}.cls-2{fill:#256e97;}.cls-11,.cls-3{fill:#e1deef;}.cls-3{opacity:0.8;}.cls-4{fill:#008394;}.cls-5{fill:#012033;}.cls-6{fill:#43718f;}.cls-7{fill:#164665;}.cls-8{fill:#b6bdce;}.cls-9{fill:#a3abc4;}.cls-10,.cls-16{fill:#006874;}.cls-12{clip-path:url(#clip-path);}.cls-13{fill:#fff;opacity:0.2;}.cls-14{fill:#08304e;}.cls-15{fill:#2a597c;}.cls-16{fill-rule:evenodd;}</style><clipPath id="clip-path"><rect class="cls-1" x="132.76" y="260.5" width="80.7" height="48.42"/></clipPath></defs><title>ТРАНСПОРТ</title><rect class="cls-2" width="500" height="500" rx="250" ry="250"/><circle class="cls-3" cx="250" cy="250" r="228.78"/><circle class="cls-4" cx="172.77" cy="240.46" r="15.58"/><path class="cls-5" d="M154.77,348c0,4-4,7.26-8.93,7.26h-2c-4.93,0-8.93-3.25-8.93-7.26V337.86c0-4,4-7.26,8.93-7.26h2c4.93,0,8.93,3.25,8.93,7.26Z"/><path class="cls-5" d="M213.78,348c0,4-4,7.26-8.93,7.26h-2c-4.93,0-8.93-3.25-8.93-7.26V337.86c0-4,4-7.26,8.93-7.26h2c4.93,0,8.93,3.25,8.93,7.26Z"/><path class="cls-6" d="M227.65,267.52h-6.74v24.21h6.74a4,4,0,0,0,4-4V271.55A4,4,0,0,0,227.65,267.52Z"/><path class="cls-6" d="M118.11,291.53h6.74V267.32h-6.74a4,4,0,0,0-4,4V287.5A4,4,0,0,0,118.11,291.53Z"/><path class="cls-7" d="M221.54,333.14V256.91c0-13.37-10.84-20.62-24.21-20.62H148.9c-13.36,0-24.21,7.25-24.21,20.62v76.23a8.07,8.07,0,0,0,8.07,8.07h80.7A8.07,8.07,0,0,0,221.54,333.14Zm-88.78-24.21V260.5h80.7v48.42Z"/><rect class="cls-8" x="132.76" y="260.5" width="80.7" height="48.42"/><path class="cls-9" d="M202.32,245a2.37,2.37,0,0,1-2.37,2.37H147.78A2.37,2.37,0,0,1,145.4,245h0a2.37,2.37,0,0,1,2.37-2.37H200a2.37,2.37,0,0,1,2.37,2.37Z"/><path class="cls-10" d="M193.44,326.55a2.33,2.33,0,0,1-2.45,2.18H155.34a2.33,2.33,0,0,1-2.45-2.18v-4.72a2.32,2.32,0,0,1,2.45-2.18H191a2.33,2.33,0,0,1,2.45,2.18Z"/><rect class="cls-7" x="132.76" y="260.48" width="80.7" height="7.48"/><path class="cls-11" d="M135.79,317h7.65a3.16,3.16,0,0,1,3.16,3.16v7.65a3.16,3.16,0,0,1-3.16,3.16h-7.65a3.17,3.17,0,0,1-3.17-3.17v-7.65A3.16,3.16,0,0,1,135.79,317Z"/><path class="cls-11" d="M203,317.74h7.65a3.16,3.16,0,0,1,3.16,3.16v7.65a3.16,3.16,0,0,1-3.16,3.16H203a3.17,3.17,0,0,1-3.17-3.17v-7.65A3.16,3.16,0,0,1,203,317.74Z"/><g class="cls-12"><rect class="cls-13" x="147.49" y="245.42" width="7.68" height="76.09" transform="translate(-101.48 85.12) rotate(-23.79)"/><rect class="cls-13" x="160.47" y="243.42" width="7.68" height="76.09" transform="translate(-99.57 90.19) rotate(-23.79)"/></g><path d="M162.8,295.66a1.08,1.08,0,0,1-.6-.18,1.1,1.1,0,0,1-.32-1.52l11.53-17.65V260.47h2.2v16.16a1.11,1.11,0,0,1-.18.6l-11.71,17.93A1.09,1.09,0,0,1,162.8,295.66Z"/><path class="cls-14" d="M374.62,387a4.53,4.53,0,0,1-4.4-3.49l-18.85-64.8H294.44l-18.85,64.8a4.53,4.53,0,0,1-8.82-2.07l19.67-68.29a4.53,4.53,0,0,1,4.41-3.49H355a4.53,4.53,0,0,1,4.41,3.49L379,381.43a4.53,4.53,0,0,1-3.38,5.44A4.46,4.46,0,0,1,374.62,387Z"/><path class="cls-10" d="M374,326.39V237.73c0-15.55-12.61-24-28.16-24H300c-15.54,0-28.16,8.43-28.16,24v88.66a9.39,9.39,0,0,0,9.39,9.39h83.41A9.38,9.38,0,0,0,374,326.39Z"/><rect class="cls-10" x="281.2" y="241.91" width="83.41" height="56.32" rx="4.88" ry="4.88"/><rect class="cls-15" x="300.07" y="244.28" width="45.72" height="91.61"/><rect class="cls-14" x="271.75" y="244.28" width="21.44" height="45.31"/><rect class="cls-14" x="306.64" y="249.33" width="33.48" height="40.26"/><rect class="cls-14" x="352.77" y="244.28" width="21.44" height="45.31"/><path class="cls-11" d="M295,316.37a5,5,0,0,1-5,5h-7.65a5,5,0,0,1-5-5h0a5,5,0,0,1,5-5H290a5,5,0,0,1,5,5Z"/><path class="cls-11" d="M369.67,316.37a5,5,0,0,1-5,5H357a5,5,0,0,1-5-5h0a5,5,0,0,1,5-5h7.65a5,5,0,0,1,5,5Z"/><path class="cls-16" d="M120.6,130.36l13.39-.92c15.22,11.25,29.35,22.8,47,33.44,18-.8,36.14-.91,54.11-1.65-5.75-3.91-11.67-8.44-17.43-12.3,1.6-.85,8.75-1,11.56-.61,10.88,3.68,21.27,8.08,32.1,11.8,9-.36,18-.67,27-1,4.22-.12,8.37-.31,12.53-.43,89.15-19.37,118,24,14.92,25.07-7,.86-13.09,1.34-19.14,1.78l3.12-.55a6.42,6.42,0,0,0,3.24-1.35,3.17,3.17,0,0,0,1.22-2.57c-.18-1.29-1.41-1.9-2.57-2.21h0a24.73,24.73,0,0,0-6.42-.31c-2.08.13-4.1.31-6.12.61-17.37,2.14-34.85,3.49-52,6.73l-.06.06h-.12v.07h-.06l-.06.06a11.54,11.54,0,0,1-2,.55c-32.53,1.4-63-5.44-96.36-11.62-4.83.42-11,1-15.41,1.34h-.18c6.66-.6,13.33-1.16,19.93-1.77,5.26-.42,10.45-.92,15.65-1.48,1.71-.19,3.48-.36,5.2-.61l1.47-.18c.43-.12,1-.25,1-.86s-.79-.92-1.35-1c-.73-.18-1.52-.24-2.26-.36-2.2-.25-4.52-.37-6.72-.43-2-.07-3.85-.13-5.74-.07-.74,0-1.47,0-2.2.07a12.24,12.24,0,0,0-1.53.11q-7.43,1.1-14.86,2.39c-1.22-2.92-1.22-7.34,5.32-7.46-5.13-11-10.94-23.36-16.08-34.36ZM287.5,186.12h-.12c-.92.05-1.84.05-2.75.13-7.83.85-18.59,1.83-27.33,2.75a.2.2,0,0,1-.18-.07c-4.34.31-9.91.92-14.25,1.42l-.67.12q-11.65,1-23.29,2.14c-.12,0-.24.06-.37.06-8.32.13-23.05.13-29.41.49-6.42-.25-8.74-.61-12.41-1,10.88-.61,21.58-1.29,32.83-1.9h-.06c-.36.19,25.68-2.26,27.64-3.66h0c17-3.24,34.73-4.65,52-6.79,3.61-.43,8.69-1,12.36-.3,3.73,1,1.89,4.34-1.89,4.88S292.46,185.57,289,186c-.49.07-1,.07-1.53.13ZM118.88,174.87l3.55-.55c7.95-1.22,16-2.75,23.91-3.85,2.87-.55,19.13,0,19,1,.06.61-33.2,3.43-42.86,4.22-.74-.06-2.7-.54-3.73-.8a.22.22,0,0,1,.12-.06ZM141,142l2,1.22.43.18h0l1.65,1h0l.19.12.18.12v5.69l-.18.13-.19.06-1.65,1h0l-.43.24-2,1.16-.18.13-.24.13-.25-.13-.19-.13-2-1.16-.43-.24h0l-1.65-1-.18-.06-.18-.13V144.6l.18-.12.18-.12h0l1.65-1h0l.43-.18,2-1.22h0l.19-.06.25-.18.24.18.18.06Zm1.59,2h0l-2-1.16-2,1.16h0l-2,1.1v4.64l2,1.17h0l2,1.16,2-1.16h0l2-1.17v-4.64l-2-1.1Zm237.11,21.46c-3.85-.61-11.68-.11-15.59-1.34a27.92,27.92,0,0,1-7.52-3.24c-6.42-4.29,6.48-9.24,23.11,4.58Zm-55-4.82h2.75v4.09h-2.75Zm6.91,0h2.75v4.09h-2.75Zm6.91,0h2.75v4.09h-2.75Zm-51.91,26.16c2.14.74,3.3,1.61,5.26,2a26.77,26.77,0,0,0-.49,5.44,25.52,25.52,0,0,0,.49,5.32,32.94,32.94,0,0,1-7.4.07c-.36-.31-.61-.92-1.53-1-3.85-.48-16-.67-17.61-2.87.06-1.84,4.16-2.08,7.52-3-5.26-1.22-8.81-2.07-13.64-3.18,8.44-.91,16.94-1.64,25.38-2.57.67-.06,1.35-.06,2-.13Zm-40.9,3.85c3.36.67,6.36,2,9.91,2.64a24.72,24.72,0,0,0-.55,5.37,26,26,0,0,0,.43,4.71,43.45,43.45,0,0,1-9,.37c-.31-.19-.31-.68-.43-.93-3.12,0-6.79-.05-9.91-.37a34.38,34.38,0,0,1-4.83-.8c-1.29-.43-2.57-1-2.81-1.9.49-1.41,3.12-2,4.71-2.45A25,25,0,0,0,222.09,193l20.18-1.9h0l.67-.12c.92-.13,1.9-.19,2.82-.32Zm47.2-1.71c1.84.63,1.9,9.37.19,10.4-.12,0-.24.07-.43.07,1.16-2.14,1.22-7.83.24-10.47Zm-36.44,4.52c1.35.2,2,7.11.3,9.67-.18.06-.36.06-.49.12,1.22-2.63,1-7.7.18-9.79ZM171.16,175.9c47.56-1.1,88.53-2.94,138.73-4.64,7-.37,65.24-2.94,67.38-2-5.74,5.8-67,6.35-79,7h-.37L225,179c-20,.73-33.32,1.16-49.83,1-1.41-1.46-2.63-2.69-4-4.1Z"/></svg>