<svg id="Layer_2" data-name="Layer 2" xmlns="http://www.w3.org/2000/svg" viewBox="0 0 500 500"><defs><style>.cls-1{fill:#256e97;}.cls-2,.cls-4{fill:#e1deef;}.cls-2{opacity:0.8;}.cls-3{fill:#006874;}.cls-5{fill:#008394;}.cls-6{fill:#00bad3;}.cls-7{fill:#edf8fe;}</style></defs><title>ОБЪЕКТЫ ЗДРАВООХРАНЕНИЯ</title><rect class="cls-1" width="500" height="500" rx="250" ry="250"/><circle class="cls-2" cx="251.14" cy="250" r="228.78"/><rect class="cls-3" x="116.84" y="217.46" width="277.1" height="184.67" rx="46.41" ry="46.41"/><rect class="cls-4" x="126.02" y="226.03" width="258.75" height="169.09" rx="33.66" ry="33.66"/><path class="cls-3" d="M196.6,143.92h0c0-12,4.61-22.24,11.44-27.73.48-.38,1-.76,1.47-1.1.33-.22.67-.45,1-.65l.52-.3c.34-.19.69-.37,1-.54s.71-.32,1.07-.46a16.77,16.77,0,0,1,6.23-1.21h73.08a16.77,16.77,0,0,1,6.23,1.2c.36.14.72.3,1.07.46s.7.34,1,.53l.51.29q.51.3,1,.64c.5.34,1,.74,1.46,1.12,6.83,5.5,11.44,15.76,11.44,27.73h0V395.34h7.86V132.66c0-17.67-10.13-32-22.69-32H212.34c-12.56,0-22.71,14.31-22.71,32V395.34h7Z"/><path class="cls-4" d="M303.82,116.15c-.48-.38-1-.74-1.47-1.08-.33-.22-.67-.44-1-.64l-.52-.29q-.52-.29-1-.54c-.35-.17-.71-.32-1.07-.46a16.77,16.77,0,0,0-6.23-1.2H219.41a16.77,16.77,0,0,0-6.23,1.2c-.36.14-.72.3-1.07.46s-.7.34-1,.53l-.51.29q-.51.3-1,.64c-.5.34-1,.7-1.49,1.08-6.83,5.5-11.45,15.82-11.45,27.69V395.34H315.26V143.84C315.26,132,310.64,121.64,303.82,116.15Z"/><rect class="cls-5" x="209.05" y="193.6" width="41.07" height="35.11" rx="6.52" ry="6.52"/><rect class="cls-5" x="209.05" y="243.16" width="41.07" height="35.11" rx="6.52" ry="6.52"/><rect class="cls-5" x="262.73" y="193.6" width="41.07" height="35.11" rx="6.52" ry="6.52"/><rect class="cls-5" x="262.73" y="243.16" width="41.07" height="35.11" rx="6.52" ry="6.52"/><rect class="cls-5" x="136.98" y="286.91" width="41.07" height="35.11" rx="6.52" ry="6.52"/><rect class="cls-5" x="334.72" y="286.91" width="41.07" height="35.11" rx="6.52" ry="6.52"/><rect class="cls-5" x="135.99" y="243.16" width="41.07" height="35.11" rx="6.52" ry="6.52"/><rect class="cls-5" x="334.72" y="243.16" width="41.07" height="35.11" rx="6.52" ry="6.52"/><path class="cls-3" d="M300.09,398.61h-89.4a6.54,6.54,0,0,1-6.52-6.52V350.47a31.43,31.43,0,0,1,31.34-31.34h39.77a31.43,31.43,0,0,1,31.34,31.34v41.62A6.54,6.54,0,0,1,300.09,398.61Z"/><circle class="cls-6" cx="255.39" cy="118.99" r="49.8"/><rect class="cls-7" x="248.46" y="85.55" width="17.22" height="67.27"/><rect class="cls-7" x="222.66" y="110.58" width="67.27" height="17.22"/></svg>